<?xml version="1.0" standalone="no"?>
<!DOCTYPE svg PUBLIC "-//W3C//DTD SVG 20010904//EN"
 "http://www.w3.org/TR/2001/REC-SVG-20010904/DTD/svg10.dtd">
<svg version="1.0" xmlns="http://www.w3.org/2000/svg"
 width="400.000000pt" height="400.000000pt" viewBox="0 0 400.000000 400.000000"
 preserveAspectRatio="xMidYMid meet">
<metadata>
Created by potrace 1.11, written by Peter Selinger 2001-2013
</metadata>
<g transform="translate(0.000000,400.000000) scale(0.100000,-0.100000)"
fill="#000000" stroke="none">
<path d="M1934 3561 c-3 -4 -66 -11 -111 -14 -13 0 -23 -4 -23 -8 0 -3 -11 -5
-25 -4 -14 2 -25 0 -25 -4 0 -4 -15 -6 -32 -6 -18 1 -44 -3 -58 -10 -14 -6
-32 -11 -40 -10 -8 1 -27 -5 -42 -12 -15 -7 -31 -13 -35 -12 -4 1 -10 0 -13
-1 -9 -3 -45 -11 -62 -14 -9 -1 -24 -9 -34 -17 -9 -8 -19 -13 -20 -12 -9 6
-64 -11 -64 -19 0 -5 -4 -7 -9 -3 -5 3 -16 -1 -24 -9 -8 -8 -17 -13 -19 -10
-6 5 -69 -20 -81 -32 -4 -4 -18 -9 -30 -11 -12 -2 -24 -8 -25 -13 -2 -6 -8 -8
-13 -4 -5 3 -9 -3 -9 -13 0 -13 -8 -19 -22 -20 -13 -1 -40 -4 -60 -8 -31 -6
-38 -5 -38 8 0 9 -6 20 -13 24 -7 4 -23 25 -37 45 -14 21 -29 38 -33 38 -5 0
-5 5 -2 10 3 6 2 10 -3 10 -5 0 -17 16 -28 35 -10 19 -22 35 -26 35 -5 0 -8 7
-8 15 0 8 -7 15 -15 15 -13 0 -14 -10 -9 -57 4 -32 6 -68 6 -80 -1 -13 2 -23
6 -23 5 0 8 -10 6 -22 -1 -13 -3 -27 -3 -31 -1 -4 -12 0 -25 10 -13 10 -22 20
-20 22 2 3 -6 15 -18 28 -12 13 -18 23 -14 23 4 0 -4 11 -18 25 -13 13 -27 33
-31 44 -3 10 -13 22 -21 25 -12 5 -14 -1 -8 -32 4 -20 8 -58 8 -84 1 -27 4
-48 7 -48 3 0 7 -15 8 -32 4 -83 7 -98 15 -98 5 0 4 -6 -1 -12 -5 -7 -9 -24
-9 -38 1 -15 -9 -34 -24 -46 -25 -22 -77 -112 -72 -126 1 -5 -3 -8 -10 -8 -6
0 -8 -3 -5 -7 4 -3 3 -11 -2 -17 -6 -7 -12 -24 -15 -39 -3 -15 -8 -38 -11 -53
-4 -16 2 -36 16 -57 19 -29 19 -30 1 -9 -11 12 -25 22 -31 22 -6 0 -11 5 -11
10 0 6 -7 10 -15 10 -8 0 -15 5 -15 10 0 6 -5 10 -12 10 -6 0 -33 21 -59 48
-64 64 -107 100 -114 94 -3 -3 -5 2 -5 11 0 8 -9 19 -20 22 -11 4 -18 11 -15
16 4 5 1 9 -4 9 -13 0 -50 30 -102 83 -20 20 -42 37 -48 37 -6 0 -11 7 -11 16
0 8 -4 12 -10 9 -5 -3 -10 -1 -10 4 0 6 -7 11 -16 11 -8 0 -13 3 -11 8 6 9
-19 33 -27 25 -3 -4 -6 0 -6 9 0 8 -6 15 -14 15 -18 0 -8 -17 43 -72 17 -19
31 -38 31 -43 0 -4 9 -14 20 -22 11 -8 20 -18 20 -22 0 -8 22 -38 53 -70 9
-10 14 -18 10 -18 -3 0 4 -8 15 -19 12 -10 22 -26 22 -35 0 -10 4 -15 9 -11 6
3 15 -4 21 -16 12 -21 33 -50 60 -78 8 -9 24 -30 34 -46 11 -17 25 -34 33 -38
7 -5 11 -12 8 -18 -4 -5 1 -9 10 -9 11 0 15 -5 12 -14 -4 -9 2 -17 14 -21 10
-4 19 -13 19 -20 0 -8 8 -19 18 -24 9 -6 14 -11 10 -11 -8 0 19 -35 59 -77 12
-13 20 -23 17 -23 -3 0 1 -6 8 -14 7 -8 17 -11 22 -8 5 3 5 -1 0 -9 -12 -19
-15 -41 -7 -59 6 -15 13 -53 15 -77 1 -7 5 -13 10 -13 4 0 8 -16 8 -35 0 -20
5 -35 12 -35 6 0 8 -3 5 -6 -3 -4 -2 -15 3 -25 7 -12 6 -20 -1 -24 -7 -5 -3
-15 10 -29 12 -12 18 -26 14 -29 -3 -4 0 -7 7 -7 7 0 11 -3 7 -6 -3 -3 1 -24
9 -46 8 -22 14 -51 14 -64 0 -13 4 -24 8 -24 4 0 9 -15 10 -32 3 -33 9 -73 12
-73 5 0 12 -61 13 -133 1 -45 6 -82 11 -82 5 0 4 -6 -2 -13 -6 -7 -9 -23 -5
-35 3 -13 1 -22 -6 -22 -5 0 -8 -7 -5 -15 4 -8 2 -15 -3 -15 -5 0 -10 -25 -11
-55 0 -30 4 -55 9 -55 5 0 9 -8 9 -17 1 -22 23 -53 39 -53 6 0 11 -5 11 -11 0
-5 29 -24 65 -41 120 -56 253 -36 327 48 18 21 38 43 44 49 6 6 15 21 18 33 4
12 11 22 15 22 4 0 8 6 8 13 1 6 12 41 25 77 13 36 25 67 25 70 10 58 17 80
23 80 4 0 6 11 5 25 -2 14 0 25 4 25 4 0 8 6 8 13 1 19 13 79 18 87 2 3 7 20
10 36 7 33 13 57 15 64 1 3 3 10 4 15 1 6 6 33 11 60 11 60 12 64 15 68 4 3
21 121 23 155 0 6 3 12 6 12 4 0 6 20 6 45 0 25 3 45 7 45 4 0 5 6 2 13 -3 8
2 14 11 14 8 0 13 -2 10 -5 -5 -6 26 -64 40 -74 6 -4 7 -8 3 -8 -3 0 2 -24 12
-52 10 -29 16 -56 14 -60 -3 -5 0 -8 7 -8 7 0 10 -3 6 -6 -3 -4 0 -21 7 -38 7
-17 12 -39 10 -49 -1 -9 1 -17 6 -17 4 0 7 -13 6 -30 -1 -16 1 -31 5 -32 5 -2
9 -24 10 -50 2 -27 5 -48 9 -48 5 0 6 -292 0 -297 -6 -7 -6 -29 1 -38 4 -5 8
-30 8 -55 2 -77 6 -110 12 -110 3 0 6 -6 6 -12 1 -11 4 -27 16 -83 2 -5 6 -16
11 -23 4 -7 6 -16 3 -18 -3 -3 1 -21 9 -40 8 -19 12 -34 9 -34 -3 0 0 -10 7
-22 7 -13 11 -26 10 -30 -1 -5 2 -8 6 -8 7 0 11 -16 14 -57 1 -7 5 -13 10 -13
4 0 7 -3 6 -7 -4 -14 44 -133 52 -128 4 2 6 -7 4 -20 -1 -14 2 -25 6 -25 5 0
11 -13 15 -30 4 -16 11 -30 17 -30 6 0 9 -3 5 -6 -3 -4 0 -19 9 -35 8 -16 11
-29 7 -29 -5 0 -3 -4 3 -8 6 -4 24 -32 40 -62 16 -30 32 -57 37 -58 4 -2 5 -8
1 -13 -3 -5 -1 -9 5 -9 5 0 13 -10 17 -22 3 -13 13 -31 22 -40 8 -10 11 -18 7
-18 -4 0 1 -8 11 -18 19 -18 38 -45 51 -72 19 -41 82 -102 96 -93 6 4 19 8 27
8 8 1 36 11 62 23 26 12 49 22 53 22 16 0 235 113 235 121 0 6 4 8 10 4 5 -3
18 3 30 15 11 11 21 20 23 19 8 -2 45 18 65 35 13 12 25 19 26 16 1 -3 9 2 18
10 8 8 27 24 42 35 15 11 36 27 46 35 10 8 33 26 50 40 18 14 44 36 58 50 15
14 30 24 34 22 4 -1 8 2 8 7 0 5 29 38 65 73 36 34 68 71 71 81 3 10 8 16 11
13 3 -3 24 18 47 47 22 29 44 54 49 55 4 2 5 8 1 13 -3 5 -1 9 4 9 5 0 38 44
73 97 35 54 68 101 74 105 5 4 6 8 1 8 -5 0 -4 6 1 13 22 26 73 127 66 127 -4
0 -3 4 3 8 5 4 20 32 33 62 13 30 29 69 36 85 26 59 65 186 64 208 0 4 6 18
13 30 18 28 17 36 -6 70 -10 15 -20 38 -22 50 -2 12 -6 36 -10 52 -3 17 -7 36
-7 43 0 6 -3 12 -7 12 -3 0 -7 14 -8 32 -2 18 -6 35 -10 38 -9 6 -15 30 -14
53 0 9 -4 17 -10 17 -6 0 -5 6 3 16 10 13 10 17 -1 24 -13 8 -50 98 -52 128
-1 6 -5 12 -10 12 -5 0 -8 6 -7 13 3 15 -11 51 -62 162 -13 28 -23 53 -21 58
1 4 -2 7 -7 7 -5 0 -11 8 -13 18 -4 14 -94 53 -153 67 -41 9 -94 37 -94 50 -1
6 14 11 31 12 18 0 35 2 38 3 3 1 9 2 14 1 5 -1 13 4 17 11 5 7 9 8 9 2 0 -6
13 -9 30 -6 17 2 30 8 30 13 0 5 -3 9 -8 9 -4 0 -13 12 -19 28 -7 15 -24 39
-37 53 -14 15 -22 30 -19 33 4 3 1 6 -5 6 -7 0 -12 7 -12 16 0 8 -4 12 -10 9
-5 -3 -10 -1 -10 6 0 6 -11 22 -26 35 -14 13 -22 24 -18 24 4 0 -5 11 -19 24
-14 13 -23 26 -21 29 3 3 -3 8 -14 11 -11 4 -23 14 -26 22 -3 8 -10 12 -16 9
-5 -3 -10 -2 -10 3 0 5 -16 9 -35 8 -19 0 -35 -3 -35 -6 0 -3 -12 -5 -27 -6
-16 0 -59 -4 -98 -9 -100 -11 -135 -15 -180 -18 -22 -1 -44 -5 -50 -9 -5 -3
-16 1 -23 8 -11 12 -7 17 30 33 53 22 81 34 88 35 3 1 12 6 20 11 8 5 20 10
25 10 6 0 24 8 41 17 17 10 34 14 38 11 3 -4 6 -2 6 4 0 6 13 13 29 16 23 5
28 10 24 26 -3 12 -9 18 -14 16 -4 -3 -12 3 -18 12 -6 10 -11 14 -11 10 0 -5
-13 1 -29 12 -16 12 -33 21 -39 21 -5 0 -15 7 -22 15 -7 8 -16 12 -21 9 -5 -3
-9 0 -9 5 0 6 -3 10 -7 10 -18 -3 -32 2 -45 14 -14 13 -75 38 -95 40 -7 0 -13
3 -13 7 0 7 -8 8 -55 11 -14 1 -25 5 -25 9 0 3 -6 7 -12 7 -35 2 -75 10 -86
17 -7 4 -12 5 -12 1 0 -3 -9 -1 -20 5 -15 8 -20 8 -20 -1 0 -8 -4 -8 -12 -2
-7 5 -32 9 -55 9 -24 -1 -43 2 -43 7 0 10 -23 4 -32 -8 -5 -6 -8 -5 -8 2 0 13
-26 13 -47 0 -7 -5 -13 -4 -13 0 0 5 -9 9 -20 10 -13 1 -18 -2 -14 -9 5 -7 2
-8 -7 -3 -13 9 -87 13 -95 6z m-184 -197 c0 -8 -19 -13 -24 -6 -3 5 1 9 9 9 8
0 15 -2 15 -3z m431 -131 c13 -16 12 -17 -3 -4 -10 7 -18 15 -18 17 0 8 8 3
21 -13z m203 -102 c-2 -3 -12 3 -22 13 -16 17 -16 18 5 5 12 -7 20 -15 17 -18z
m186 -116 c0 -5 -5 -3 -10 5 -5 8 -10 20 -10 25 0 6 5 3 10 -5 5 -8 10 -19 10
-25z m44 -21 c5 -14 4 -15 -9 -4 -17 14 -19 20 -6 20 5 0 12 -7 15 -16z m81
-54 c-3 -5 -12 -10 -18 -10 -7 0 -6 4 3 10 19 12 23 12 15 0z m75 -60 c0 -5
-2 -10 -4 -10 -3 0 -8 5 -11 10 -3 6 -1 10 4 10 6 0 11 -4 11 -10z m40 -16 c0
-8 -19 -13 -24 -6 -3 5 1 9 9 9 8 0 15 -2 15 -3z m34 -50 c3 -8 2 -12 -4 -9
-6 3 -10 10 -10 16 0 14 7 11 14 -7z m86 -75 c0 -4 -13 6 -30 23 -16 16 -30
32 -30 36 0 3 14 -7 30 -23 17 -16 30 -32 30 -36z m74 -58 c-2 -3 -12 3 -22
13 -16 17 -16 18 5 5 12 -7 20 -15 17 -18z m35 -45 c-3 -3 -11 5 -18 17 -13
21 -12 21 5 5 10 -10 16 -20 13 -22z m31 -16 c0 -5 -2 -10 -4 -10 -3 0 -8 5
-11 10 -3 6 -1 10 4 10 6 0 11 -4 11 -10z m84 -86 c5 -14 4 -15 -9 -4 -17 14
-19 20 -6 20 5 0 12 -7 15 -16z m30 -40 c3 -8 2 -12 -4 -9 -6 3 -10 10 -10 16
0 14 7 11 14 -7z m83 -89 c0 -8 -4 -12 -9 -9 -5 3 -6 10 -3 15 9 13 12 11 12
-6z m101 -130 c-3 -3 -9 2 -12 12 -6 14 -5 15 5 6 7 -7 10 -15 7 -18z m59 -77
c-3 -8 -6 -5 -6 6 -1 11 2 17 5 13 3 -3 4 -12 1 -19z m98 -108 c3 -6 -1 -7 -9
-4 -18 7 -21 14 -7 14 6 0 13 -4 16 -10z m27 -34 c7 4 8 2 4 -5 -9 -13 -26 -5
-25 12 0 9 2 8 6 -1 2 -6 10 -9 15 -6z"/>
<path d="M565 2370 c10 -11 22 -20 27 -20 4 0 -1 9 -12 20 -11 11 -23 20 -27
20 -3 0 2 -9 12 -20z"/>
<path d="M3676 1927 c3 -10 9 -15 12 -12 3 3 0 11 -7 18 -10 9 -11 8 -5 -6z"/>
<path d="M3735 1900 c3 -5 8 -10 11 -10 2 0 4 5 4 10 0 6 -5 10 -11 10 -5 0
-7 -4 -4 -10z"/>
<path d="M3791 1874 c0 -11 3 -14 6 -6 3 7 2 16 -1 19 -3 4 -6 -2 -5 -13z"/>
<path d="M3573 1745 c0 -8 4 -12 9 -9 5 3 6 10 3 15 -9 13 -12 11 -12 -6z"/>
<path d="M3596 1717 c3 -10 9 -15 12 -12 3 3 0 11 -7 18 -10 9 -11 8 -5 -6z"/>
<path d="M3670 1652 c0 -5 9 -17 20 -27 11 -10 20 -15 20 -12 0 4 -9 16 -20
27 -11 11 -20 16 -20 12z"/>
<path d="M3717 1589 c7 -7 15 -10 18 -7 3 3 -2 9 -12 12 -14 6 -15 5 -6 -5z"/>
<path d="M3730 1567 c0 -3 12 -12 26 -22 15 -9 23 -12 20 -6 -7 11 -46 35 -46
28z"/>
<path d="M3843 1448 c9 -7 24 -22 33 -33 8 -11 12 -13 8 -5 -11 24 -36 50 -47
50 -6 0 -3 -6 6 -12z"/>
<path d="M1282 620 c7 -14 11 -29 9 -35 -1 -5 1 -6 5 -2 4 4 9 15 10 23 1 9 0
13 -3 10 -3 -3 -12 2 -20 12 -12 15 -13 14 -1 -8z"/>
</g>
</svg>
