# Blender v2.90.1 OBJ File: ''
# www.blender.org
mtllib untitled.mtl
o boid3jaw
v 0.045100 -0.341800 0.198200
v 0.076700 -0.346600 0.175000
v 0.000000 -0.383000 0.124800
v 0.088300 -0.339200 0.307700
v 0.037300 -0.374700 0.261300
v 0.000000 -0.431700 0.346600
v 0.069500 -0.386700 0.256300
v 0.000000 -0.446300 0.319600
v 0.005200 -0.427000 0.266700
v 0.156700 -0.180000 0.225400
v 0.134300 -0.297400 0.282700
v 0.107500 -0.344700 0.259000
v 0.136400 -0.177300 0.315600
v 0.107000 -0.224500 0.285200
v 0.117400 -0.265000 0.309500
v 0.178200 0.038900 0.091200
v 0.160000 -0.064400 0.224300
v 0.185300 -0.039000 0.192900
v 0.164500 -0.010500 0.097100
v 0.165300 -0.094100 0.201800
v 0.170400 -0.137100 0.255300
v 0.177500 -0.135300 0.208700
v 0.185200 -0.071200 0.148100
v 0.168300 -0.175500 0.278700
v 0.136400 -0.177300 0.315600
v 0.117400 -0.265000 0.309500
v 0.162100 -0.168300 0.323500
v 0.111100 -0.276000 0.196300
v 0.089500 -0.274600 0.212700
v 0.121300 -0.168600 0.196300
v 0.199700 -0.064900 0.185500
v 0.196000 -0.113400 0.255900
v 0.196200 -0.044000 0.093800
v 0.222600 -0.005100 0.103100
v 0.169300 -0.022800 -0.036000
v 0.164800 -0.010600 -0.008500
v 0.205400 -0.015800 0.015200
v 0.162100 -0.051100 -0.034600
v 0.137600 -0.103700 0.186200
v 0.279300 0.093600 -0.004200
v 0.183600 0.095100 -0.010600
v 0.260500 0.078400 0.034100
v 0.000000 -0.431700 0.346600
v 0.035800 -0.429800 0.338100
v 0.105900 -0.353300 0.326600
v 0.214900 0.047700 0.091400
v 0.185300 -0.039000 0.192900
v 0.214900 0.047700 0.091400
v 0.112700 -0.155300 0.244100
v 0.090300 -0.216400 0.234200
v 0.122800 -0.154800 0.294600
v 0.262700 0.072500 -0.027900
v 0.221000 0.048900 -0.020900
v 0.078500 -0.369500 0.202900
v 0.013000 -0.393400 0.194000
v 0.123600 -0.252600 0.220700
v 0.143400 -0.181900 0.207800
v 0.088300 -0.339200 0.307700
v 0.131600 -0.303900 0.313900
v 0.178000 0.054300 0.044200
v 0.155700 -0.007800 0.022800
v 0.217600 0.067500 0.052000
v 0.000000 -0.377000 0.224400
v 0.000000 -0.446300 0.319600
v 0.147500 -0.057200 0.098400
v 0.132100 -0.076300 0.034100
v 0.215400 0.021600 0.012600
v 0.285300 0.055800 -0.014500
v 0.273200 0.051800 0.037600
v 0.138500 -0.137700 0.203100
v 0.154800 -0.107500 0.103200
v 0.279300 0.093600 -0.004200
v 0.123900 -0.341000 0.149100
v 0.139700 -0.017900 -0.011300
v 0.104100 -0.346200 0.206400
v 0.000000 -0.341100 0.194800
v 0.100300 -0.321300 0.179800
v 0.000000 -0.458500 0.363900
v 0.179300 -0.094600 0.114500
v 0.000000 -0.422200 0.259500
v 0.000000 -0.377000 0.224400
v -0.045100 -0.341800 0.198200
v -0.076700 -0.346600 0.175000
v -0.088300 -0.339200 0.307700
v 0.000000 -0.431700 0.346600
v -0.037300 -0.374700 0.261300
v -0.069500 -0.386700 0.256300
v -0.005200 -0.427000 0.266700
v -0.156700 -0.180000 0.225400
v -0.107500 -0.344700 0.259000
v -0.134300 -0.297400 0.282700
v -0.136400 -0.177300 0.315600
v -0.117400 -0.265000 0.309500
v -0.107000 -0.224500 0.285200
v -0.178200 0.038900 0.091200
v -0.185300 -0.039000 0.192900
v -0.160000 -0.064400 0.224300
v -0.165300 -0.094100 0.201800
v -0.164500 -0.010500 0.097100
v -0.170400 -0.137100 0.255300
v -0.185200 -0.071200 0.148100
v -0.177500 -0.135300 0.208700
v -0.168300 -0.175500 0.278700
v -0.136400 -0.177300 0.315600
v -0.162100 -0.168300 0.323500
v -0.117400 -0.265000 0.309500
v -0.111100 -0.276000 0.196300
v -0.121300 -0.168600 0.196300
v -0.089500 -0.274600 0.212700
v -0.199700 -0.064900 0.185500
v -0.196000 -0.113400 0.255900
v -0.196200 -0.044000 0.093800
v -0.222600 -0.005100 0.103100
v -0.169300 -0.022800 -0.036000
v -0.205400 -0.015800 0.015200
v -0.164800 -0.010600 -0.008500
v -0.162100 -0.051100 -0.034600
v -0.137600 -0.103700 0.186200
v -0.279300 0.093600 -0.004200
v -0.260500 0.078400 0.034100
v -0.183600 0.095100 -0.010600
v -0.105900 -0.353300 0.326600
v -0.035800 -0.429800 0.338100
v -0.214900 0.047700 0.091400
v -0.185300 -0.039000 0.192900
v -0.214900 0.047700 0.091400
v -0.112700 -0.155300 0.244100
v -0.090300 -0.216400 0.234200
v -0.122800 -0.154800 0.294600
v -0.262700 0.072500 -0.027900
v -0.221000 0.048900 -0.020900
v -0.013000 -0.393400 0.194000
v -0.078500 -0.369500 0.202900
v -0.123600 -0.252600 0.220700
v -0.143400 -0.181900 0.207800
v -0.088300 -0.339200 0.307700
v -0.131600 -0.303900 0.313900
v -0.178000 0.054300 0.044200
v -0.155700 -0.007800 0.022800
v -0.217600 0.067500 0.052000
v -0.147500 -0.057200 0.098400
v -0.132100 -0.076300 0.034100
v -0.215400 0.021600 0.012600
v -0.273200 0.051800 0.037600
v -0.285300 0.055800 -0.014500
v -0.138500 -0.137700 0.203100
v -0.154800 -0.107500 0.103200
v -0.279300 0.093600 -0.004200
v -0.123900 -0.341000 0.149100
v -0.139700 -0.017900 -0.011300
v -0.104100 -0.346200 0.206400
v -0.100300 -0.321300 0.179800
v -0.179300 -0.094600 0.114500
v -0.178500 -0.035700 0.022000
v -0.169400 -0.031600 0.079000
v -0.224300 0.022400 0.061000
v -0.260500 0.078400 0.034100
v -0.217600 0.067500 0.052000
v 0.178500 -0.035700 0.022000
v 0.169400 -0.031600 0.079000
v 0.224300 0.022400 0.061000
v 0.260500 0.078400 0.034100
v 0.217600 0.067500 0.052000
v -0.092200 -0.379000 0.283400
v -0.090200 -0.279600 0.247900
v 0.092200 -0.379000 0.283400
v 0.090200 -0.279600 0.247900
v -0.171200 -0.068400 0.273900
v -0.160000 -0.064400 0.224300
v -0.158100 -0.091400 0.308000
v -0.201900 -0.097600 0.328300
v -0.233700 -0.106100 0.304800
v -0.203300 -0.081100 0.277000
v -0.143700 -0.111900 0.292000
v -0.195000 -0.069200 0.302600
v -0.143700 -0.111900 0.292000
v 0.171200 -0.068400 0.273900
v 0.160000 -0.064400 0.224300
v 0.158100 -0.091400 0.308000
v 0.201900 -0.097600 0.328300
v 0.233700 -0.106100 0.304800
v 0.203300 -0.081100 0.277000
v 0.143700 -0.111900 0.292000
v 0.195000 -0.069200 0.302600
v 0.143700 -0.111900 0.292000
vt 0.498800 0.434600
vt 0.513800 0.392800
vt 0.564100 0.444500
vt 0.411400 0.462100
vt 0.465300 0.484200
vt 0.418000 0.561400
vt 0.583800 0.343200
vt 0.674300 0.345500
vt 0.639700 0.367900
vt 0.406800 0.259700
vt 0.522500 0.277500
vt 0.543300 0.315500
vt 0.330600 0.392600
vt 0.378500 0.388100
vt 0.383000 0.422500
vt 0.140500 0.233600
vt 0.251700 0.322400
vt 0.207700 0.312700
vt 0.186500 0.241100
vt 0.277500 0.295100
vt 0.403800 0.206100
vt 0.370500 0.225400
vt 0.312300 0.159000
vt 0.439900 0.218500
vt 0.496700 0.170500
vt 0.545300 0.225200
vt 0.473700 0.181600
vt 0.459200 0.342500
vt 0.448200 0.372200
vt 0.381400 0.298900
vt 0.337700 0.134400
vt 0.393500 0.174000
vt 0.266100 0.136100
vt 0.258300 0.092600
vt 0.187600 0.159800
vt 0.181100 0.156500
vt 0.198900 0.120500
vt 0.186300 0.160900
vt 0.303800 0.275900
vt 0.053200 0.101800
vt 0.105800 0.146600
vt 0.044000 0.161800
vt 0.699000 0.323200
vt 0.661500 0.318400
vt 0.591900 0.279400
vt 0.233800 0.051100
vt 0.340400 0.102200
vt 0.112600 0.244700
vt 0.348200 0.326200
vt 0.399000 0.353200
vt 0.330100 0.368400
vt 0.101300 0.080000
vt 0.134200 0.111100
vt 0.543800 0.368200
vt 0.586200 0.401000
vt 0.454400 0.308000
vt 0.397500 0.281400
vt 0.603100 0.258900
vt 0.548700 0.258300
vt 0.126400 0.197300
vt 0.174800 0.183900
vt 0.088900 0.204300
vt 0.506800 0.496000
vt 0.436300 0.559400
vt 0.229600 0.239900
vt 0.225900 0.193200
vt 0.174600 0.106700
vt 0.124700 0.064900
vt 0.165800 0.053300
vt 0.353600 0.272300
vt 0.285200 0.213300
vt 0.115500 0.039400
vt 0.492400 0.369100
vt 0.175200 0.176000
vt 0.521700 0.348200
vt 0.528400 0.476600
vt 0.491800 0.365800
vt 0.693900 0.327800
vt 0.297000 0.182700
vt 0.639500 0.376700
vt 0.610600 0.402700
vt 0.566900 0.510500
vt 0.610100 0.500000
vt 0.530300 0.594400
vt 0.432200 0.577300
vt 0.514100 0.538500
vt 0.666900 0.435700
vt 0.648200 0.377500
vt 0.731100 0.620500
vt 0.690100 0.479000
vt 0.725600 0.503700
vt 0.590900 0.682200
vt 0.566700 0.626900
vt 0.600400 0.635100
vt 0.729100 0.888100
vt 0.657400 0.813000
vt 0.652300 0.768300
vt 0.682200 0.745500
vt 0.726500 0.841500
vt 0.784200 0.629200
vt 0.821300 0.725100
vt 0.761300 0.660300
vt 0.775700 0.592000
vt 0.829600 0.540400
vt 0.816100 0.562200
vt 0.779900 0.486600
vt 0.654400 0.559700
vt 0.689400 0.641700
vt 0.623600 0.567500
vt 0.848500 0.702400
vt 0.814900 0.642800
vt 0.839300 0.773400
vt 0.881700 0.785800
vt 0.807500 0.849000
vt 0.847800 0.841900
vt 0.810000 0.855800
vt 0.806300 0.850100
vt 0.704000 0.721300
vt 0.851000 0.988800
vt 0.790400 0.991600
vt 0.812000 0.931800
vt 0.731200 0.434400
vt 0.699900 0.361100
vt 0.920400 0.814500
vt 0.880800 0.703100
vt 0.715200 0.914700
vt 0.658800 0.671800
vt 0.637200 0.618400
vt 0.614800 0.685400
vt 0.877800 0.943200
vt 0.850300 0.907200
vt 0.609600 0.427100
vt 0.637800 0.472800
vt 0.688100 0.568100
vt 0.708600 0.627500
vt 0.752700 0.425500
vt 0.747500 0.479700
vt 0.763800 0.905900
vt 0.782100 0.859200
vt 0.752800 0.942500
vt 0.732300 0.798700
vt 0.778400 0.807200
vt 0.858900 0.867600
vt 0.911200 0.881800
vt 0.895300 0.921500
vt 0.712800 0.672200
vt 0.764500 0.746300
vt 0.919700 0.933300
vt 0.631400 0.523800
vt 0.790100 0.859500
vt 0.655300 0.496900
vt 0.634700 0.524800
vt 0.796200 0.737800
vt 0.823900 0.823800
vt 0.741700 0.829600
vt 0.890800 0.833500
vt 0.932100 0.891000
vt 0.945400 0.849200
vt 0.214400 0.146100
vt 0.200000 0.227300
vt 0.211800 0.078500
vt 0.158800 0.031500
vt 0.201800 0.022600
vt 0.692200 0.438700
vt 0.596200 0.581200
vt 0.583500 0.317700
vt 0.431700 0.398000
vt 0.880500 0.634100
vt 0.907500 0.658200
vt 0.872200 0.596700
vt 0.847200 0.610000
vt 0.836200 0.621100
vt 0.851000 0.639400
vt 0.613500 0.721600
vt 0.865300 0.625000
vt 0.883000 0.583000
vt 0.409100 0.109800
vt 0.388000 0.080400
vt 0.445500 0.122000
vt 0.429600 0.145400
vt 0.417300 0.155200
vt 0.400800 0.138500
vt 0.293900 0.365900
vt 0.416500 0.125800
vt 0.460200 0.112800
vn -0.4843 0.8603 -0.1591
vn -0.1756 0.0145 -0.9843
vn 0.0000 -0.2502 -0.9682
vn -0.6622 0.4826 0.5732
vn -0.6702 0.6669 0.3257
vn 0.0000 0.6619 0.7496
vn 0.5079 -0.8379 -0.2001
vn 0.0000 -0.8979 -0.4402
vn 0.0804 -0.9190 -0.3860
vn 0.8317 -0.3288 -0.4475
vn 0.9294 -0.3480 -0.1228
vn 0.8899 -0.4356 -0.1356
vn -0.5560 0.1157 0.8231
vn -0.8951 0.1254 0.4279
vn -0.6310 0.1156 0.7671
vn -0.6493 0.6692 0.3615
vn -0.8943 0.4430 0.0633
vn 0.4500 0.7053 0.5478
vn -0.9766 0.2143 0.0183
vn -0.9006 0.4009 0.1676
vn 0.8775 -0.3505 -0.3273
vn 0.8652 -0.4428 -0.2352
vn 0.8964 -0.4292 -0.1105
vn 0.9073 -0.4161 -0.0597
vn 0.3000 -0.2475 0.9213
vn 0.3211 0.0826 -0.9434
vn -0.8418 0.3215 -0.4336
vn -0.3619 0.2670 -0.8932
vn 0.9934 -0.0779 0.0845
vn 0.8282 -0.3566 -0.4323
vn 0.8507 -0.5003 -0.1612
vn 0.9807 -0.1358 0.1408
vn 0.2095 0.3776 -0.9020
vn -0.1987 0.7621 -0.6162
vn 0.7953 -0.4290 -0.4283
vn 0.0192 -0.5537 -0.8325
vn -0.8745 0.4162 0.2492
vn 0.6297 0.7687 -0.1119
vn -0.5445 0.7516 -0.3725
vn 0.3432 0.6650 0.6633
vn 0.5964 -0.6179 0.5124
vn 0.5132 -0.1516 0.8448
vn 0.4135 0.6644 0.6226
vn -0.8846 0.4659 0.0206
vn -0.9773 0.2061 -0.0488
vn -0.8331 0.3492 0.4290
vn 0.2195 0.1584 -0.9627
vn 0.0151 -0.3583 -0.9335
vn 0.5235 -0.8110 -0.2611
vn -0.2532 -0.9439 -0.2119
vn 0.8956 -0.2940 -0.3339
vn 0.6774 -0.1162 -0.7264
vn 0.7514 -0.1952 0.6303
vn -0.7507 0.5978 0.2810
vn -0.8946 0.4407 0.0741
vn -0.0290 0.8638 0.5030
vn 0.0000 0.7575 0.6528
vn -0.0001 -0.8979 -0.4402
vn -0.9105 0.4056 0.0808
vn -0.8310 -0.5020 -0.2396
vn 0.6452 -0.6572 -0.3897
vn 0.8088 -0.3978 -0.4332
vn 0.8071 -0.2766 0.5216
vn -0.4601 -0.4300 -0.7768
vn 0.1468 -0.9285 -0.3412
vn 0.6376 0.0011 -0.7703
vn -0.7937 0.4917 -0.3582
vn 0.8936 -0.4482 0.0224
vn 0.0000 0.9903 0.1392
vn 0.3557 0.5950 -0.7207
vn -0.0000 -0.6359 0.7718
vn 0.8128 -0.5485 -0.1961
vn -0.0000 -0.6906 -0.7233
vn -0.0001 0.7575 0.6528
vn 0.4843 0.8603 -0.1591
vn 0.1756 0.0145 -0.9843
vn 0.6622 0.4826 0.5732
vn 0.6702 0.6669 0.3257
vn -0.5079 -0.8379 -0.2001
vn -0.0804 -0.9190 -0.3860
vn -0.8317 -0.3288 -0.4475
vn -0.8899 -0.4354 -0.1358
vn -0.9294 -0.3480 -0.1228
vn 0.5560 0.1157 0.8231
vn 0.6310 0.1156 0.7671
vn 0.8950 0.1254 0.4280
vn 0.6493 0.6692 0.3615
vn -0.4500 0.7053 0.5478
vn 0.8943 0.4430 0.0633
vn 0.9006 0.4009 0.1676
vn 0.9766 0.2142 0.0182
vn -0.8775 -0.3505 -0.3273
vn -0.8964 -0.4292 -0.1105
vn -0.8653 -0.4427 -0.2351
vn -0.9074 -0.4161 -0.0598
vn -0.3000 -0.2475 0.9213
vn -0.3211 0.0826 -0.9434
vn 0.3619 0.2670 -0.8932
vn 0.8418 0.3215 -0.4336
vn -0.9934 -0.0779 0.0845
vn -0.8282 -0.3566 -0.4323
vn -0.8507 -0.5003 -0.1612
vn -0.9807 -0.1358 0.1408
vn -0.2095 0.3776 -0.9020
vn -0.7953 -0.4290 -0.4283
vn 0.1987 0.7621 -0.6162
vn -0.0192 -0.5537 -0.8325
vn 0.8745 0.4162 0.2492
vn -0.6297 0.7687 -0.1119
vn -0.3432 0.6650 0.6633
vn 0.5445 0.7515 -0.3725
vn -0.5132 -0.1516 0.8448
vn -0.5964 -0.6179 0.5123
vn -0.4135 0.6644 0.6226
vn 0.8846 0.4659 0.0206
vn 0.9773 0.2061 -0.0488
vn 0.8331 0.3492 0.4290
vn -0.2195 0.1585 -0.9627
vn -0.0151 -0.3583 -0.9335
vn 0.2532 -0.9439 -0.2119
vn -0.5235 -0.8110 -0.2611
vn -0.8956 -0.2940 -0.3339
vn -0.6774 -0.1162 -0.7264
vn -0.7514 -0.1952 0.6303
vn 0.7507 0.5978 0.2810
vn 0.8946 0.4407 0.0741
vn 0.0290 0.8638 0.5030
vn 0.9105 0.4056 0.0808
vn 0.8310 -0.5020 -0.2396
vn -0.6452 -0.6572 -0.3897
vn -0.8073 -0.2765 0.5214
vn -0.8087 -0.3979 -0.4332
vn 0.4600 -0.4300 -0.7768
vn -0.1468 -0.9285 -0.3412
vn -0.6376 0.0011 -0.7703
vn 0.7938 0.4918 -0.3579
vn -0.8936 -0.4482 0.0224
vn -0.3556 0.5950 -0.7207
vn -0.8128 -0.5485 -0.1961
vn -0.7746 -0.6147 -0.1491
vn 0.9355 0.3484 0.0584
vn -0.8939 -0.4291 0.1296
vn 0.7746 -0.6147 -0.1491
vn -0.9355 0.3484 0.0583
vn 0.8939 -0.4290 0.1297
vn -0.7439 -0.6638 -0.0774
vn 0.9282 0.2840 0.2403
vn 0.7439 -0.6638 -0.0774
vn -0.9282 0.2840 0.2403
vn 0.2826 0.9259 0.2507
vn 0.6273 0.5066 0.5915
vn -0.2236 0.2690 0.9368
vn -0.9875 0.0046 0.1578
vn -0.7662 0.5946 -0.2438
vn 0.9084 0.3733 0.1881
vn -0.1949 0.9245 0.3276
vn -0.2826 0.9259 0.2507
vn -0.6274 0.5065 0.5914
vn 0.2236 0.2690 0.9368
vn 0.9875 0.0048 0.1578
vn 0.7662 0.5946 -0.2438
vn -0.9084 0.3733 0.1881
vn 0.1949 0.9245 0.3276
usemtl Default_OBJ.004
s 1
f 1/1/1 2/2/2 3/3/3
f 4/4/4 5/5/5 6/6/6
f 7/7/7 8/8/8 9/9/9
f 10/10/10 11/11/11 12/12/12
f 13/13/13 14/14/14 15/15/15
f 16/16/16 17/17/17 18/18/18
f 17/17/17 19/19/19 20/20/20
f 21/21/21 22/22/22 23/23/23
f 11/11/11 10/10/10 24/24/24
f 25/25/13 26/26/15 27/27/25
f 28/28/26 29/29/27 30/30/28
f 31/31/29 32/32/30 23/23/23
f 33/33/31 34/34/32 31/31/29
f 35/35/33 36/36/34 37/37/35
f 38/38/36 35/35/33 37/37/35
f 19/19/19 39/39/37 20/20/20
f 40/40/38 41/41/39 42/42/40
f 43/43/6 44/44/41 45/45/42
f 46/46/43 47/47/18 34/34/32
f 48/48/43 16/16/16 18/18/18
f 32/32/30 21/21/21 23/23/23
f 49/49/44 30/30/28 50/50/45
f 14/14/14 51/51/46 49/49/44
f 52/52/47 53/53/48 41/41/39
f 3/3/3 54/54/49 55/55/50
f 56/56/51 10/10/10 12/12/12
f 28/28/26 30/30/28 57/57/52
f 43/43/6 45/45/42 58/58/4
f 26/26/15 59/59/53 27/27/25
f 60/60/54 41/41/39 61/61/55
f 41/41/39 60/60/54 62/62/56
f 27/27/25 11/11/11 24/24/24
f 5/5/5 63/63/57 64/64/58
f 16/16/16 19/19/19 17/17/17
f 34/34/32 47/47/18 31/31/29
f 65/65/59 66/66/60 39/39/37
f 19/19/19 65/65/59 39/39/37
f 67/67/61 68/68/62 69/69/63
f 50/50/45 30/30/28 29/29/27
f 39/39/37 66/66/60 70/70/64
f 5/5/5 64/64/58 6/6/6
f 71/71/65 70/70/64 66/66/60
f 70/70/64 71/71/65 22/22/22
f 69/69/63 68/68/62 72/72/38
f 52/52/47 41/41/39 40/40/38
f 54/54/49 3/3/3 2/2/2
f 73/73/66 54/54/49 2/2/2
f 35/35/33 74/74/67 36/36/34
f 35/35/33 38/38/36 74/74/67
f 1/1/1 63/63/57 5/5/5
f 41/41/39 36/36/34 61/61/55
f 41/41/39 53/53/48 36/36/34
f 75/75/68 54/54/49 73/73/66
f 59/59/53 11/11/11 27/27/25
f 1/1/1 76/76/69 63/63/57
f 73/73/66 77/77/70 75/75/68
f 77/77/70 73/73/66 2/2/2
f 57/57/52 30/30/28 70/70/64
f 78/78/71 44/44/41 43/43/6
f 8/8/8 7/7/7 44/44/41
f 68/68/62 52/52/47 72/72/38
f 68/68/62 53/53/48 52/52/47
f 42/42/40 41/41/39 62/62/56
f 8/8/8 44/44/41 78/78/71
f 49/49/44 50/50/45 14/14/14
f 67/67/61 53/53/48 68/68/62
f 22/22/22 71/71/65 79/79/72
f 22/22/22 79/79/72 23/23/23
f 13/13/13 51/51/46 14/14/14
f 9/9/9 8/8/8 80/80/73
f 56/56/51 57/57/52 10/10/10
f 10/10/10 57/57/52 70/70/64
f 55/55/50 81/81/74 3/3/3
f 9/9/9 81/81/74 55/55/50
f 31/31/29 23/23/23 33/33/31
f 76/76/69 1/1/1 3/3/3
f 81/81/74 9/9/9 80/80/73
f 82/82/75 3/3/3 83/83/76
f 84/84/77 85/85/6 86/86/78
f 87/87/79 88/88/80 8/8/8
f 89/89/81 90/90/82 91/91/83
f 92/92/84 93/93/85 94/94/86
f 95/95/87 96/96/88 97/97/89
f 97/97/89 98/98/90 99/99/91
f 100/100/92 101/101/93 102/102/94
f 91/91/83 103/103/95 89/89/81
f 104/104/84 105/105/96 106/106/85
f 107/107/97 108/108/98 109/109/99
f 110/110/100 101/101/93 111/111/101
f 112/112/102 110/110/100 113/113/103
f 114/114/104 115/115/105 116/116/106
f 117/117/107 115/115/105 114/114/104
f 99/99/91 98/98/90 118/118/108
f 119/119/109 120/120/110 121/121/111
f 43/43/6 122/122/112 123/123/113
f 124/124/114 113/113/103 125/125/88
f 126/126/114 96/96/88 95/95/87
f 111/111/101 101/101/93 100/100/92
f 127/127/115 128/128/116 108/108/98
f 94/94/86 127/127/115 129/129/117
f 130/130/118 121/121/111 131/131/119
f 3/3/3 132/132/120 133/133/121
f 134/134/122 90/90/82 89/89/81
f 107/107/97 135/135/123 108/108/98
f 43/43/6 136/136/77 122/122/112
f 106/106/85 105/105/96 137/137/124
f 138/138/125 139/139/126 121/121/111
f 121/121/111 140/140/127 138/138/125
f 105/105/96 103/103/95 91/91/83
f 86/86/78 64/64/58 63/63/57
f 95/95/87 97/97/89 99/99/91
f 113/113/103 110/110/100 125/125/88
f 141/141/128 118/118/108 142/142/129
f 99/99/91 118/118/108 141/141/128
f 143/143/130 144/144/131 145/145/132
f 128/128/116 109/109/99 108/108/98
f 118/118/108 146/146/133 142/142/129
f 86/86/78 85/85/6 64/64/58
f 147/147/134 142/142/129 146/146/133
f 146/146/133 102/102/94 147/147/134
f 144/144/131 148/148/109 145/145/132
f 130/130/118 119/119/109 121/121/111
f 133/133/121 83/83/76 3/3/3
f 149/149/135 83/83/76 133/133/121
f 114/114/104 116/116/106 150/150/136
f 114/114/104 150/150/136 117/117/107
f 82/82/75 86/86/78 63/63/57
f 121/121/111 139/139/126 116/116/106
f 121/121/111 116/116/106 131/131/119
f 151/151/137 149/149/135 133/133/121
f 137/137/124 105/105/96 91/91/83
f 82/82/75 63/63/57 76/76/69
f 149/149/135 151/151/137 152/152/138
f 152/152/138 83/83/76 149/149/135
f 135/135/123 146/146/133 108/108/98
f 78/78/71 43/43/6 123/123/113
f 8/8/8 123/123/113 87/87/79
f 145/145/132 148/148/109 130/130/118
f 145/145/132 130/130/118 131/131/119
f 120/120/110 140/140/127 121/121/111
f 8/8/8 78/78/71 123/123/113
f 127/127/115 94/94/86 128/128/116
f 143/143/130 145/145/132 131/131/119
f 102/102/94 153/153/139 147/147/134
f 102/102/94 101/101/93 153/153/139
f 92/92/84 94/94/86 129/129/117
f 88/88/80 80/80/73 8/8/8
f 134/134/122 89/89/81 135/135/123
f 89/89/81 146/146/133 135/135/123
f 132/132/120 3/3/3 81/81/74
f 88/88/80 132/132/120 81/81/74
f 110/110/100 112/112/102 101/101/93
f 76/76/69 3/3/3 82/82/75
f 81/81/74 80/80/73 88/88/80
f 117/117/107 153/153/139 154/154/140
f 139/139/126 99/99/91 155/155/141
f 117/117/107 147/147/134 153/153/139
f 142/142/129 147/147/134 117/117/107
f 117/117/107 150/150/136 142/142/129
f 150/150/136 141/141/128 142/142/129
f 143/143/130 116/116/106 115/115/105
f 156/156/142 143/143/130 115/115/105
f 144/144/131 156/156/142 124/124/114
f 143/143/130 156/156/142 144/144/131
f 138/138/125 99/99/91 139/139/126
f 157/157/110 148/148/109 144/144/131
f 150/150/136 116/116/106 139/139/126
f 150/150/136 139/139/126 141/141/128
f 113/113/103 115/115/105 112/112/102
f 154/154/140 115/115/105 117/117/107
f 138/138/125 140/140/127 95/95/87
f 95/95/87 99/99/91 138/138/125
f 154/154/140 112/112/102 115/115/105
f 154/154/140 153/153/139 112/112/102
f 95/95/87 140/140/127 126/126/114
f 144/144/131 124/124/114 158/158/127
f 157/157/110 144/144/131 158/158/127
f 143/143/130 131/131/119 116/116/106
f 155/155/141 141/141/128 139/139/126
f 155/155/141 99/99/91 141/141/128
f 156/156/142 113/113/103 124/124/114
f 115/115/105 113/113/103 156/156/142
f 153/153/139 101/101/93 112/112/102
f 38/38/36 159/159/143 79/79/72
f 61/61/55 160/160/144 19/19/19
f 38/38/36 79/79/72 71/71/65
f 66/66/60 38/38/36 71/71/65
f 38/38/36 66/66/60 74/74/67
f 74/74/67 66/66/60 65/65/59
f 67/67/61 37/37/35 36/36/34
f 161/161/145 37/37/35 67/67/61
f 69/69/63 46/46/43 161/161/145
f 67/67/61 69/69/63 161/161/145
f 60/60/54 61/61/55 19/19/19
f 162/162/40 69/69/63 72/72/38
f 74/74/67 61/61/55 36/36/34
f 74/74/67 65/65/59 61/61/55
f 34/34/32 33/33/31 37/37/35
f 159/159/143 38/38/36 37/37/35
f 60/60/54 16/16/16 62/62/56
f 16/16/16 60/60/54 19/19/19
f 159/159/143 37/37/35 33/33/31
f 159/159/143 33/33/31 79/79/72
f 16/16/16 48/48/43 62/62/56
f 69/69/63 163/163/56 46/46/43
f 162/162/40 163/163/56 69/69/63
f 67/67/61 36/36/34 53/53/48
f 160/160/144 61/61/55 65/65/59
f 160/160/144 65/65/59 19/19/19
f 161/161/145 46/46/43 34/34/32
f 37/37/35 161/161/145 34/34/32
f 79/79/72 33/33/31 23/23/23
f 123/123/113 122/122/112 164/164/146
f 83/83/76 109/109/99 82/82/75
f 107/107/97 109/109/99 152/152/138
f 86/86/78 165/165/147 84/84/77
f 151/151/137 90/90/82 134/134/122
f 87/87/79 133/133/121 88/88/80
f 109/109/99 83/83/76 152/152/138
f 90/90/82 151/151/137 133/133/121
f 93/93/85 165/165/147 94/94/86
f 82/82/75 165/165/147 86/86/78
f 90/90/82 133/133/121 164/164/146
f 164/164/146 137/137/124 90/90/82
f 152/152/138 151/151/137 134/134/122
f 137/137/124 91/91/83 90/90/82
f 164/164/146 122/122/112 137/137/124
f 122/122/112 106/106/85 137/137/124
f 133/133/121 87/87/79 164/164/146
f 123/123/113 164/164/146 87/87/79
f 128/128/116 165/165/147 109/109/99
f 82/82/75 109/109/99 165/165/147
f 165/165/147 128/128/116 94/94/86
f 93/93/85 84/84/77 165/165/147
f 106/106/85 122/122/112 136/136/77
f 107/107/97 134/134/122 135/135/123
f 107/107/97 152/152/138 134/134/122
f 88/88/80 133/133/121 132/132/120
f 44/44/41 166/166/148 45/45/42
f 2/2/2 1/1/1 29/29/27
f 28/28/26 77/77/70 29/29/27
f 5/5/5 4/4/4 167/167/149
f 75/75/68 56/56/51 12/12/12
f 7/7/7 9/9/9 54/54/49
f 29/29/27 77/77/70 2/2/2
f 12/12/12 54/54/49 75/75/68
f 15/15/15 14/14/14 167/167/149
f 1/1/1 5/5/5 167/167/149
f 12/12/12 166/166/148 54/54/49
f 166/166/148 12/12/12 59/59/53
f 77/77/70 56/56/51 75/75/68
f 59/59/53 12/12/12 11/11/11
f 166/166/148 59/59/53 45/45/42
f 45/45/42 59/59/53 26/26/15
f 54/54/49 166/166/148 7/7/7
f 44/44/41 7/7/7 166/166/148
f 50/50/45 29/29/27 167/167/149
f 1/1/1 167/167/149 29/29/27
f 167/167/149 14/14/14 50/50/45
f 15/15/15 167/167/149 4/4/4
f 26/26/15 58/58/4 45/45/42
f 28/28/26 57/57/52 56/56/51
f 28/28/26 56/56/51 77/77/70
f 9/9/9 55/55/50 54/54/49
f 98/98/90 129/129/117 127/127/115
f 168/168/150 169/169/89 125/125/88
f 118/118/108 98/98/90 127/127/115
f 170/170/151 171/171/152 105/105/96
f 105/105/96 171/171/152 172/172/153
f 111/111/101 173/173/154 125/125/88
f 104/104/84 170/170/151 105/105/96
f 98/98/90 174/174/155 129/129/117
f 105/105/96 172/172/153 103/103/95
f 103/103/95 111/111/101 100/100/92
f 103/103/95 100/100/92 102/102/94
f 125/125/88 110/110/100 111/111/101
f 89/89/81 102/102/94 146/146/133
f 89/89/81 103/103/95 102/102/94
f 127/127/115 146/146/133 118/118/108
f 172/172/153 111/111/101 103/103/95
f 173/173/154 111/111/101 172/172/153
f 175/175/156 172/172/153 171/171/152
f 170/170/151 175/175/156 171/171/152
f 97/97/89 174/174/155 98/98/90
f 168/168/150 170/170/151 169/169/89
f 173/173/154 168/168/150 125/125/88
f 175/175/156 173/173/154 172/172/153
f 108/108/98 146/146/133 127/127/115
f 175/175/156 170/170/151 168/168/150
f 175/175/156 168/168/150 173/173/154
f 174/174/155 92/92/84 129/129/117
f 170/170/151 176/176/155 169/169/89
f 104/104/84 176/176/155 170/170/151
f 20/20/20 49/49/44 51/51/46
f 177/177/157 47/47/18 178/178/17
f 39/39/37 49/49/44 20/20/20
f 179/179/158 27/27/25 180/180/159
f 27/27/25 181/181/160 180/180/159
f 32/32/30 47/47/18 182/182/161
f 25/25/13 27/27/25 179/179/158
f 20/20/20 51/51/46 183/183/162
f 27/27/25 24/24/24 181/181/160
f 24/24/24 21/21/21 32/32/30
f 24/24/24 22/22/22 21/21/21
f 47/47/18 32/32/30 31/31/29
f 10/10/10 70/70/64 22/22/22
f 10/10/10 22/22/22 24/24/24
f 49/49/44 39/39/37 70/70/64
f 181/181/160 24/24/24 32/32/30
f 182/182/161 181/181/160 32/32/30
f 184/184/163 180/180/159 181/181/160
f 179/179/158 180/180/159 184/184/163
f 17/17/17 20/20/20 183/183/162
f 177/177/157 178/178/17 179/179/158
f 182/182/161 47/47/18 177/177/157
f 184/184/163 181/181/160 182/182/161
f 30/30/28 49/49/44 70/70/64
f 184/184/163 177/177/157 179/179/158
f 184/184/163 182/182/161 177/177/157
f 183/183/162 51/51/46 13/13/13
f 179/179/158 178/178/17 185/185/162
f 25/25/13 179/179/158 185/185/162
