# Blender v2.91.0 OBJ File: ''
# www.blender.org
mtllib untitled.mtl
o hand
v -0.094300 0.195400 0.023500
v -0.022600 0.190400 -0.002000
v -0.099700 0.191100 -0.003200
v -0.040200 0.193500 0.037200
v -0.029800 0.187600 -0.020500
v 0.007000 0.047300 -0.004900
v -0.038200 0.182200 -0.029000
v -0.029200 0.101300 -0.019900
v -0.004900 0.058700 -0.011200
v -0.011600 0.041000 -0.012100
v 0.015700 0.005800 -0.010900
v 0.022800 -0.038600 -0.040700
v 0.001300 0.007100 -0.012200
v 0.001500 -0.063900 -0.009100
v 0.016700 -0.065700 -0.023400
v 0.024900 -0.077300 -0.010200
v -0.028500 0.016500 0.022200
v -0.026600 -0.017100 0.024300
v -0.011900 0.011200 0.033000
v -0.006900 -0.016500 -0.019700
v 0.014400 -0.049000 -0.039900
v -0.011300 -0.043700 -0.012100
v 0.029400 0.004700 0.007000
v 0.038000 -0.030700 -0.020700
v 0.024700 0.008500 -0.002800
v -0.067100 0.194800 0.040200
v -0.025600 -0.016400 -0.002700
v -0.047900 -0.083900 0.007800
v -0.036200 -0.027500 0.010600
v -0.074000 0.181000 0.035700
v -0.048100 0.131600 0.036200
v -0.052900 0.192400 0.040000
v -0.021100 0.083300 0.037000
v -0.040200 0.193500 0.037200
v -0.083300 0.184700 -0.027000
v -0.054700 0.098400 -0.011300
v -0.091400 0.173000 -0.014100
v -0.017300 -0.098700 0.004000
v -0.031900 -0.089300 0.008500
v -0.028000 -0.072900 -0.004800
v -0.040800 -0.084500 -0.001700
v -0.055700 -0.104400 -0.020500
v -0.054200 -0.130500 -0.034800
v -0.051600 -0.107400 -0.006600
v -0.002200 -0.015600 0.037000
v 0.016400 -0.054900 0.030600
v 0.016300 0.002500 0.033900
v 0.027500 -0.037400 0.023200
v -0.044800 -0.101100 -0.020300
v -0.046000 -0.119300 -0.033400
v -0.041600 -0.080400 0.021000
v 0.024900 -0.077300 -0.010200
v 0.016700 -0.065700 -0.023400
v 0.033400 -0.067400 -0.019800
v -0.028300 -0.093900 0.013000
v -0.030200 -0.127900 0.005900
v -0.022300 -0.099700 0.022900
v -0.026900 -0.054200 0.028500
v -0.028800 -0.078900 0.020200
v 0.042500 -0.058100 -0.038500
v 0.035900 -0.039300 -0.006500
v -0.027300 0.038000 -0.007300
v -0.021800 -0.006500 -0.000500
v -0.032900 0.019200 0.008100
v 0.004600 -0.196200 0.013500
v 0.013300 -0.187000 0.013000
v 0.004800 -0.149700 0.028800
v 0.031700 -0.032100 -0.031600
v -0.023600 -0.111300 -0.000700
v 0.003500 0.006800 0.036300
v 0.030100 -0.008500 0.020300
v 0.001300 0.075700 0.024000
v 0.030400 -0.080400 -0.070900
v 0.032400 -0.093600 -0.066000
v 0.018100 -0.109400 -0.086200
v -0.001900 0.062600 0.030500
v 0.013600 -0.099800 -0.068200
v 0.026400 -0.112900 -0.077600
v -0.032800 -0.000300 0.014100
v -0.028500 -0.009800 0.009400
v -0.030300 -0.168100 -0.019500
v -0.024400 -0.142400 0.009500
v -0.012800 0.154200 -0.004900
v 0.016400 -0.059200 -0.041300
v -0.027800 0.187400 0.029600
v -0.027800 0.187400 0.029600
v -0.021600 0.191000 0.014400
v -0.049800 0.183300 -0.033700
v -0.043100 0.100000 -0.018000
v -0.038700 0.077500 0.029500
v -0.043400 0.055300 0.015100
v 0.042500 -0.058100 -0.038500
v 0.031100 -0.080200 -0.048400
v 0.032800 -0.072000 -0.060300
v 0.024700 0.008500 -0.002800
v 0.038000 -0.030700 -0.020700
v -0.034300 -0.087500 0.000100
v -0.096200 0.170900 0.000200
v -0.023400 -0.161900 -0.024800
v -0.021100 -0.128300 -0.002300
v 0.006700 -0.183800 0.003700
v -0.016900 -0.164600 -0.020800
v -0.022000 -0.176400 -0.021300
v 0.036000 -0.070100 -0.036400
v 0.022500 -0.069200 -0.037700
v -0.022600 0.190400 -0.002000
v -0.028300 -0.093900 0.013000
v -0.042500 0.055500 0.001100
v 0.038500 -0.051200 -0.048300
v 0.015000 -0.088100 -0.075700
v 0.013600 -0.099800 -0.068200
v -0.052900 -0.120900 -0.037600
v -0.044800 -0.111300 -0.012200
v -0.031900 -0.089300 0.008500
v -0.088600 0.161000 0.011700
v -0.065800 0.176000 -0.032600
v -0.071800 0.147300 0.025200
v -0.002200 -0.186200 0.012400
v -0.046300 -0.129000 -0.035700
v -0.044800 -0.111300 -0.012200
v 0.031100 -0.080200 -0.048400
v 0.020200 -0.101800 -0.063400
v 0.020700 -0.061900 -0.054200
v 0.020200 -0.101800 -0.063400
v 0.022500 -0.069200 -0.037700
v 0.020200 -0.101800 -0.063400
v -0.038600 -0.088500 0.018000
v 0.029100 -0.082000 0.026900
v 0.034800 -0.104100 0.017300
v 0.037000 -0.085500 0.012300
v -0.010300 -0.068900 -0.005100
v 0.000500 -0.074700 0.031500
v 0.030000 -0.171800 0.011600
v 0.027500 -0.100100 0.004100
v -0.006400 -0.095700 0.006500
v 0.011900 -0.092600 0.005400
v 0.016800 -0.096600 0.020200
v 0.019700 -0.166500 0.021200
v 0.016300 -0.131500 0.011100
v 0.016200 -0.178900 0.015500
v 0.016800 -0.096600 0.020200
v -0.011500 -0.099800 0.015100
v 0.002800 -0.108000 0.028800
v -0.009900 -0.089300 0.024100
v 0.011200 -0.100400 0.014800
v -0.000500 -0.105300 0.007900
v -0.000500 -0.105300 0.007900
v 0.005900 -0.135700 0.010900
v -0.004000 -0.142200 0.013800
v 0.009600 -0.099500 0.023800
v 0.011900 -0.141900 0.022500
v 0.011900 -0.142300 0.014900
v -0.017800 -0.138700 0.011200
v -0.012800 -0.136300 0.002300
v -0.023600 -0.111300 -0.000700
v -0.007100 -0.104000 0.020100
v -0.017300 -0.098700 0.004000
v 0.020700 -0.175500 0.007300
v 0.028800 -0.158000 0.021900
v 0.011200 -0.100400 0.014800
v 0.011200 -0.100400 0.014800
v 0.018800 -0.099700 0.005700
v 0.038500 -0.060500 0.003600
v -0.006400 -0.095700 0.006500
v -0.014600 -0.062100 0.031600
v 0.025900 -0.184800 0.015400
v 0.011900 -0.142300 0.014900
v 0.006800 -0.117000 0.008200
v 0.036300 -0.077800 0.000500
v 0.011900 -0.092600 0.005400
v 0.006800 -0.117000 0.008200
v -0.021100 -0.128300 -0.002300
v -0.021100 -0.128300 -0.002300
v -0.002400 -0.149200 0.022900
v 0.011900 -0.141900 0.022500
v 0.011900 -0.141900 0.022500
v -0.013300 0.152100 0.021600
v 0.005800 0.075400 0.011200
v -0.013200 0.163900 0.006800
v 0.006500 0.064600 0.000800
v -0.013300 0.152100 0.021600
v 0.005800 0.075400 0.011200
v 0.006500 0.064600 0.000800
v -0.013300 0.152100 0.021600
v -0.013200 0.163900 0.006800
vt 0.833600 0.298800
vt 0.884300 0.168500
vt 0.806800 0.258400
vt 0.900000 0.305400
vt 0.828900 0.132000
vt 0.460300 0.181200
vt 0.804200 0.152500
vt 0.602300 0.205600
vt 0.494700 0.198400
vt 0.461700 0.238500
vt 0.371000 0.218800
vt 0.265500 0.191900
vt 0.374700 0.253500
vt 0.196100 0.279600
vt 0.189400 0.225800
vt 0.156600 0.225100
vt 0.431500 0.382000
vt 0.343600 0.419400
vt 0.426300 0.432200
vt 0.316900 0.275000
vt 0.237600 0.202700
vt 0.251200 0.301700
vt 0.452200 0.560300
vt 0.443300 0.636900
vt 0.475300 0.576200
vt 0.860700 0.327900
vt 0.326200 0.338600
vt 0.158100 0.430100
vt 0.304000 0.388900
vt 0.821100 0.325200
vt 0.714800 0.368200
vt 0.876400 0.332300
vt 0.602100 0.424700
vt 0.878400 0.362700
vt 0.787500 0.216700
vt 0.609900 0.265200
vt 0.772700 0.245700
vt 0.116400 0.324200
vt 0.136700 0.360500
vt 0.179700 0.358000
vt 0.149900 0.397600
vt 0.088100 0.420800
vt 0.031800 0.420700
vt 0.098400 0.448800
vt 0.366000 0.481800
vt 0.302300 0.570300
vt 0.418200 0.499900
vt 0.355300 0.574500
vt 0.093500 0.399800
vt 0.044300 0.401000
vt 0.181400 0.459400
vt 0.354900 0.700900
vt 0.378100 0.735000
vt 0.390800 0.695500
vt 0.148800 0.514500
vt 0.080600 0.532000
vt 0.150500 0.554300
vt 0.255200 0.469000
vt 0.189700 0.497400
vt 0.444000 0.697600
vt 0.404300 0.629700
vt 0.468100 0.282400
vt 0.355800 0.332200
vt 0.431100 0.341800
vt 0.104300 0.768700
vt 0.102100 0.775100
vt 0.152200 0.705100
vt 0.294800 0.175300
vt 0.095400 0.496200
vt 0.421600 0.470500
vt 0.410400 0.544100
vt 0.592700 0.481100
vt 0.205900 0.092300
vt 0.212200 0.064200
vt 0.153600 0.030300
vt 0.557200 0.469700
vt 0.203500 0.001900
vt 0.181400 0.027600
vt 0.382200 0.373300
vt 0.352500 0.367600
vt 0.028600 0.569700
vt 0.074200 0.563500
vt 0.729900 0.111600
vt 0.213500 0.191000
vt 0.865700 0.396800
vt 0.918800 0.256100
vt 0.904800 0.212900
vt 0.797500 0.169000
vt 0.606900 0.235500
vt 0.582600 0.375800
vt 0.526900 0.340300
vt 0.282000 0.122400
vt 0.253500 0.079900
vt 0.228600 0.110100
vt 0.377000 0.191200
vt 0.317500 0.157300
vt 0.141200 0.377400
vt 0.776400 0.272200
vt 0.013300 0.565900
vt 0.055000 0.514600
vt 0.097900 0.749100
vt 0.001900 0.575400
vt 0.019600 0.575900
vt 0.428300 0.719900
vt 0.410900 0.744000
vt 0.820800 0.086700
vt 0.118800 0.358300
vt 0.520900 0.306800
vt 0.261900 0.145000
vt 0.168100 0.085600
vt 0.137100 0.085600
vt 0.041100 0.410600
vt 0.070500 0.367700
vt 0.147900 0.496200
vt 0.760500 0.295400
vt 0.774500 0.196500
vt 0.737900 0.329500
vt 0.111400 0.746800
vt 0.018700 0.416500
vt 0.079400 0.462800
vt 0.450600 0.749700
vt 0.482800 0.807300
vt 0.217400 0.154900
vt 0.216100 0.025400
vt 0.182400 0.190200
vt 0.122900 0.098000
vt 0.165200 0.473700
vt 0.273200 0.630400
vt 0.266500 0.679900
vt 0.301100 0.663500
vt 0.186100 0.311200
vt 0.238900 0.567400
vt 0.178200 0.774700
vt 0.299200 0.706900
vt 0.115500 0.299100
vt 0.123600 0.260800
vt 0.225100 0.641000
vt 0.163400 0.768100
vt 0.250600 0.765000
vt 0.142400 0.799400
vt 0.335200 0.767700
vt 0.141500 0.612200
vt 0.181600 0.635500
vt 0.186500 0.574700
vt 0.104100 0.248000
vt 0.090600 0.279400
vt 0.127500 0.629500
vt 0.092800 0.668800
vt 0.115200 0.682000
vt 0.208800 0.629900
vt 0.178100 0.705200
vt 0.072100 0.674000
vt 0.080300 0.577800
vt 0.071000 0.599700
vt 0.081500 0.320600
vt 0.153500 0.623600
vt 0.124300 0.618900
vt 0.170300 0.786400
vt 0.186600 0.753400
vt 0.223800 0.642800
vt 0.337600 0.752200
vt 0.311900 0.729000
vt 0.355900 0.644500
vt 0.135900 0.621700
vt 0.250100 0.513900
vt 0.156100 0.790100
vt 0.010500 0.223500
vt 0.062500 0.257300
vt 0.334500 0.672100
vt 0.335800 0.736200
vt 0.107600 0.642000
vt 0.079800 0.627400
vt 0.050300 0.292800
vt 0.132800 0.697800
vt 0.015800 0.206200
vt 0.056200 0.673700
vt 0.715100 0.050300
vt 0.522700 0.122700
vt 0.749000 0.078900
vt 0.498700 0.155000
vt 0.782500 0.441700
vt 0.601500 0.509800
vt 0.589700 0.537700
vt 0.998000 0.201400
vt 0.960900 0.174100
vn -0.6874 0.5937 0.4183
vn 0.6096 0.7642 -0.2108
vn -0.7952 0.5632 -0.2247
vn 0.3169 0.7064 0.6329
vn 0.5132 0.6864 -0.5153
vn 0.5918 0.1669 -0.7886
vn 0.4708 0.2724 -0.8391
vn 0.0072 -0.1586 -0.9873
vn 0.3641 -0.0103 -0.9313
vn -0.0839 -0.0941 -0.9920
vn 0.3380 0.4323 -0.8360
vn -0.0978 0.5283 -0.8434
vn -0.1668 0.2298 -0.9588
vn -0.4028 -0.5556 -0.7273
vn -0.3607 -0.8875 -0.2868
vn 0.0527 -0.7020 -0.7102
vn -0.7874 -0.1081 0.6069
vn -0.7901 0.1044 0.6041
vn -0.3874 -0.0436 0.9209
vn -0.5654 0.2227 -0.7941
vn -0.6921 0.1504 -0.7060
vn -0.5774 -0.1437 -0.8037
vn 0.9552 0.2960 0.0046
vn 0.9419 0.3039 -0.1432
vn 0.7724 0.3852 -0.5050
vn -0.1785 0.6400 0.7474
vn -0.7498 0.2567 -0.6099
vn -0.9840 0.1669 0.0624
vn -0.9628 0.2699 -0.0168
vn -0.4927 -0.1690 0.8537
vn -0.3414 -0.1443 0.9288
vn 0.1015 0.3018 0.9480
vn 0.1372 0.0161 0.9904
vn -0.4706 0.4431 -0.7630
vn -0.5968 -0.3354 -0.7289
vn -0.8060 -0.2641 -0.5297
vn 0.1701 -0.1925 -0.9664
vn 0.1131 -0.9933 -0.0224
vn -0.1280 -0.1921 -0.9730
vn -0.2822 0.4462 -0.8493
vn -0.8444 0.4055 -0.3501
vn -0.5206 -0.8244 -0.2224
vn -0.6193 -0.5393 0.5706
vn -0.0684 -0.0174 0.9975
vn 0.3082 -0.0469 0.9502
vn 0.5229 0.0944 0.8471
vn 0.6842 -0.0013 0.7293
vn 0.3367 0.6024 -0.7237
vn 0.7494 0.3309 -0.5735
vn -0.5421 -0.1641 0.8241
vn 0.7054 -0.6990 -0.1178
vn -0.9539 -0.2866 0.0891
vn -1.0000 0.0064 -0.0060
vn -0.2907 -0.3124 0.9044
vn -0.4340 -0.0175 0.9008
vn -0.3965 -0.3526 0.8476
vn 0.9921 -0.1205 -0.0362
vn 0.9938 0.0583 0.0943
vn -0.5034 -0.2563 -0.8252
vn -0.7153 0.1477 -0.6831
vn -0.9583 -0.2040 -0.2000
vn -0.0850 -0.9851 0.1492
vn 0.9005 -0.4146 0.1313
vn 0.0439 -0.1396 0.9892
vn 0.5089 0.6027 -0.6147
vn -0.3133 0.2115 -0.9258
vn 0.0292 0.0225 0.9993
vn 0.8971 0.1275 0.4230
vn 0.8324 0.2075 0.5138
vn 0.5750 0.4008 -0.7133
vn 0.9651 -0.2596 -0.0333
vn -0.2594 -0.5050 -0.8232
vn 0.5626 0.1965 0.8030
vn -0.8949 -0.3870 0.2221
vn 0.4595 -0.8692 -0.1828
vn -0.9918 -0.1264 0.0173
vn -0.9558 0.0405 -0.2911
vn -0.9059 -0.3844 -0.1777
vn -0.4213 -0.4801 0.7694
vn 0.9130 0.1988 -0.3564
vn -0.9314 -0.2679 -0.2466
vn 0.6969 0.3933 0.5997
vn 0.6677 0.7338 0.1254
vn 0.0926 0.5076 -0.8566
vn -0.2911 -0.2433 -0.9252
vn -0.6454 -0.2312 0.7280
vn -0.9068 -0.3046 0.2916
vn 0.6548 -0.5885 0.4742
vn 0.7952 0.2990 -0.5275
vn 0.7640 -0.2112 -0.6097
vn -0.9534 -0.3014 -0.0138
vn -0.0896 0.2360 -0.9676
vn 0.0223 0.3114 -0.9500
vn 0.1048 -0.2215 -0.9695
vn 0.9093 -0.1173 -0.3994
vn 0.1297 -0.9641 -0.2318
vn 0.5769 -0.7700 0.2724
vn -0.5114 -0.7638 0.3937
vn -0.8609 -0.3699 -0.3493
vn 0.6162 0.4103 -0.6723
vn -0.6568 0.3872 -0.6471
vn -0.3695 0.2940 -0.8815
vn 0.4583 -0.7635 0.4550
vn -0.8362 -0.3345 0.4346
vn -0.2256 -0.0655 -0.9720
vn -0.6494 -0.2832 0.7058
vn -0.9318 -0.3631 0.0028
vn 0.6343 -0.6655 -0.3934
vn -0.1812 -0.7127 0.6777
vn -0.4560 0.5416 -0.7062
vn 0.0207 -0.6502 0.7595
vn 0.4245 -0.0666 0.9030
vn 0.9276 -0.0542 0.3697
vn 0.9908 -0.1096 0.0794
vn -0.0184 -0.3385 -0.9408
vn 0.0167 -0.1828 0.9830
vn 0.8985 -0.2292 -0.3743
vn 0.3383 -0.2803 -0.8983
vn -0.0101 -0.5630 -0.8264
vn -0.1954 -0.5248 -0.8285
vn -0.1736 -0.4491 0.8765
vn -0.3917 -0.1562 0.9067
vn -0.8925 0.0044 -0.4511
vn -0.8101 -0.5506 0.2013
vn -0.1736 -0.4491 0.8764
vn 0.3744 -0.8923 0.2521
vn -0.0437 -0.0546 0.9975
vn -0.2113 -0.3191 0.9239
vn 0.7034 -0.6601 -0.2636
vn -0.2918 -0.2235 -0.9300
vn 0.1322 -0.0651 -0.9891
vn -0.8593 -0.0236 -0.5109
vn 0.7086 -0.1975 0.6774
vn 0.9094 -0.0037 0.4159
vn 0.9075 0.0474 -0.4173
vn 0.4790 -0.4024 0.7801
vn 0.9937 -0.0485 -0.1014
vn -0.9242 -0.0212 0.3813
vn -0.2484 -0.3402 -0.9070
vn 0.6070 -0.1302 0.7840
vn -0.5215 -0.4442 -0.7285
vn 0.9991 0.0185 0.0390
vn -0.2016 -0.1340 0.9703
vn 0.3172 -0.9373 0.1445
vn 0.3765 -0.0261 -0.9261
vn 0.8815 -0.3064 -0.3591
vn 0.3765 -0.0261 -0.9260
vn -0.8512 -0.0973 0.5157
vn 0.8822 0.2028 0.4250
vn 0.9666 0.2433 0.0809
vn 0.9678 0.2517 0.0020
vn 0.9065 0.2375 -0.3490
usemtl Default_OBJ
s 1
f 1/1/1 2/2/2 3/3/3
f 4/4/4 2/2/2 1/1/1
f 5/5/5 6/6/6 7/7/7
f 8/8/8 9/9/9 10/10/10
f 11/11/11 12/12/12 13/13/13
f 14/14/14 15/15/15 16/16/16
f 17/17/17 18/18/18 19/19/19
f 20/20/20 21/21/21 22/22/22
f 23/23/23 24/24/24 25/25/25
f 26/26/26 4/4/4 1/1/1
f 27/27/27 28/28/28 29/29/29
f 30/30/30 31/31/31 26/26/26
f 32/32/32 33/33/33 34/34/4
f 31/31/31 33/33/33 32/32/32
f 5/5/5 35/35/34 3/3/3
f 35/35/34 36/36/35 37/37/36
f 38/38/37 39/39/38 40/40/39
f 27/27/27 41/41/40 28/28/28
f 42/42/41 43/43/42 44/44/43
f 45/45/44 46/46/45 47/47/46
f 47/47/46 46/46/45 48/48/47
f 49/49/48 50/50/49 42/42/41
f 39/39/38 50/50/49 49/49/48
f 18/18/18 29/29/29 51/51/50
f 52/52/16 53/53/15 54/54/51
f 12/12/12 21/21/21 20/20/20
f 55/55/52 56/56/53 57/57/54
f 58/58/55 51/51/50 59/59/56
f 54/54/51 60/60/57 61/61/58
f 13/13/13 12/12/12 20/20/20
f 62/62/59 63/63/60 64/64/61
f 65/65/62 66/66/63 67/67/64
f 11/11/11 68/68/65 12/12/12
f 69/69/66 56/56/53 55/55/52
f 13/13/13 63/63/60 10/10/10
f 31/31/31 70/70/67 33/33/33
f 47/47/46 71/71/68 72/72/69
f 58/58/55 59/59/56 57/57/54
f 73/73/70 74/74/71 75/75/72
f 33/33/33 76/76/73 34/34/4
f 77/77/74 75/75/72 78/78/75
f 79/79/76 18/18/18 17/17/17
f 72/72/69 71/71/68 23/23/23
f 64/64/61 63/63/60 80/80/77
f 64/64/61 79/79/76 17/17/17
f 81/81/78 82/82/79 56/56/53
f 56/56/53 82/82/79 57/57/54
f 83/83/80 6/6/6 5/5/5
f 2/2/2 5/5/5 3/3/3
f 14/14/14 84/84/81 15/15/15
f 34/34/4 76/76/73 85/85/82
f 4/4/4 86/86/82 87/87/83
f 88/88/84 9/9/9 8/8/8
f 5/5/5 88/88/84 35/35/34
f 89/89/85 36/36/35 35/35/34
f 90/90/86 17/17/17 19/19/19
f 19/19/19 70/70/67 31/31/31
f 71/71/68 61/61/58 23/23/23
f 23/23/23 61/61/58 24/24/24
f 13/13/13 20/20/20 63/63/60
f 91/91/87 64/64/61 17/17/17
f 91/91/87 17/17/17 90/90/86
f 92/92/57 93/93/88 94/94/89
f 95/95/25 96/96/24 68/68/65
f 39/39/38 97/97/90 40/40/39
f 40/40/39 41/41/40 27/27/27
f 19/19/19 45/45/44 70/70/67
f 58/58/55 45/45/44 19/19/19
f 35/35/34 37/37/36 3/3/3
f 3/3/3 98/98/91 1/1/1
f 99/99/92 56/56/53 100/100/93
f 63/63/60 27/27/27 29/29/29
f 65/65/62 101/101/94 66/66/63
f 102/102/95 99/99/92 100/100/93
f 81/81/78 103/103/96 82/82/79
f 22/22/22 84/84/81 14/14/14
f 6/6/6 9/9/9 7/7/7
f 18/18/18 58/58/55 19/19/19
f 58/58/55 18/18/18 51/51/50
f 89/89/85 10/10/10 62/62/59
f 10/10/10 63/63/60 62/62/59
f 54/54/51 104/104/97 60/60/57
f 54/54/51 105/105/98 104/104/97
f 106/106/2 83/83/80 5/5/5
f 39/39/38 38/38/37 107/107/52
f 53/53/15 105/105/98 54/54/51
f 62/62/59 64/64/61 108/108/99
f 70/70/67 45/45/44 47/47/46
f 3/3/3 37/37/36 98/98/91
f 92/92/57 94/94/89 109/109/100
f 56/56/53 99/99/92 81/81/78
f 99/99/92 103/103/96 81/81/78
f 73/73/70 75/75/72 110/110/101
f 110/110/101 75/75/72 111/111/74
f 90/90/86 19/19/19 31/31/31
f 95/95/25 68/68/65 11/11/11
f 112/112/102 43/43/42 42/42/41
f 113/113/103 50/50/49 39/39/38
f 26/26/26 31/31/31 32/32/32
f 26/26/26 32/32/32 4/4/4
f 96/96/24 109/109/100 68/68/65
f 69/69/66 100/100/93 56/56/53
f 99/99/92 102/102/95 103/103/96
f 74/74/71 78/78/75 75/75/72
f 114/114/38 55/55/52 59/59/56
f 59/59/56 55/55/52 57/57/54
f 1/1/1 30/30/30 26/26/26
f 7/7/7 9/9/9 88/88/84
f 5/5/5 7/7/7 88/88/84
f 98/98/91 115/115/104 1/1/1
f 40/40/39 97/97/90 41/41/40
f 47/47/46 48/48/47 71/71/68
f 88/88/84 8/8/8 116/116/105
f 116/116/105 89/89/85 35/35/34
f 115/115/104 117/117/106 1/1/1
f 1/1/1 117/117/106 30/30/30
f 118/118/107 65/65/62 67/67/64
f 101/101/94 65/65/62 118/118/107
f 43/43/42 119/119/108 120/120/103
f 44/44/43 43/43/42 120/120/103
f 8/8/8 10/10/10 89/89/85
f 116/116/105 8/8/8 89/89/85
f 96/96/24 92/92/57 109/109/100
f 61/61/58 60/60/57 24/24/24
f 63/63/60 29/29/29 80/80/77
f 80/80/77 29/29/29 18/18/18
f 50/50/49 112/112/102 42/42/41
f 104/104/97 121/121/88 60/60/57
f 64/64/61 80/80/77 79/79/76
f 79/79/76 80/80/77 18/18/18
f 4/4/4 87/87/83 2/2/2
f 113/113/103 119/119/108 50/50/49
f 22/22/22 21/21/21 84/84/81
f 89/89/85 62/62/59 36/36/35
f 36/36/35 62/62/59 108/108/99
f 112/112/102 119/119/108 43/43/42
f 119/119/108 112/112/102 50/50/49
f 105/105/98 122/122/109 121/121/88
f 93/93/88 74/74/71 94/94/89
f 123/123/110 110/110/101 84/84/81
f 123/123/110 73/73/70 110/110/101
f 110/110/101 111/111/74 84/84/81
f 124/124/109 78/78/75 93/93/88
f 84/84/81 111/111/74 125/125/98
f 84/84/81 125/125/98 15/15/15
f 109/109/100 94/94/89 123/123/110
f 68/68/65 109/109/100 12/12/12
f 77/77/74 78/78/75 124/124/109
f 125/125/98 111/111/74 126/126/109
f 93/93/88 78/78/75 74/74/71
f 12/12/12 123/123/110 21/21/21
f 109/109/100 123/123/110 12/12/12
f 94/94/89 73/73/70 123/123/110
f 94/94/89 74/74/71 73/73/70
f 105/105/98 121/121/88 104/104/97
f 21/21/21 123/123/110 84/84/81
f 88/88/84 116/116/105 35/35/34
f 29/29/29 28/28/28 51/51/50
f 127/127/111 120/120/103 114/114/38
f 41/41/40 42/42/41 28/28/28
f 42/42/41 44/44/43 28/28/28
f 59/59/56 127/127/111 114/114/38
f 127/127/111 44/44/43 120/120/103
f 51/51/50 28/28/28 44/44/43
f 51/51/50 44/44/43 127/127/111
f 51/51/50 127/127/111 59/59/56
f 49/49/48 42/42/41 41/41/40
f 39/39/38 49/49/48 97/97/90
f 97/97/90 49/49/48 41/41/40
f 128/128/112 129/129/113 130/130/114
f 131/131/115 38/38/37 40/40/39
f 45/45/44 132/132/116 46/46/45
f 130/130/114 133/133/117 134/134/118
f 135/135/119 131/131/115 136/136/120
f 137/137/121 138/138/122 128/128/112
f 139/139/123 140/140/124 141/141/125
f 142/142/126 143/143/127 144/144/128
f 136/136/120 145/145/129 146/146/130
f 147/147/130 148/148/131 149/149/132
f 150/150/133 137/137/121 46/46/45
f 150/150/133 67/67/64 151/151/134
f 152/152/135 101/101/94 148/148/131
f 153/153/136 154/154/137 142/142/126
f 38/38/37 155/155/66 107/107/52
f 147/147/130 149/149/132 156/156/138
f 142/142/126 154/154/137 157/157/37
f 134/134/118 133/133/117 158/158/139
f 128/128/112 138/138/122 159/159/140
f 137/137/121 150/150/133 160/160/129
f 141/141/125 161/161/129 162/162/141
f 71/71/68 163/163/142 61/61/58
f 131/131/115 135/135/119 38/38/37
f 142/142/126 157/157/37 164/164/119
f 57/57/54 142/142/126 144/144/128
f 165/165/143 58/58/55 57/57/54
f 14/14/14 16/16/16 136/136/120
f 134/134/118 158/158/139 139/139/123
f 153/153/136 103/103/96 154/154/137
f 148/148/131 101/101/94 149/149/132
f 139/139/123 158/158/139 140/140/124
f 140/140/124 158/158/139 166/166/144
f 101/101/94 118/118/107 149/149/132
f 145/145/129 167/167/135 168/168/145
f 145/145/129 168/168/145 146/146/130
f 129/129/113 133/133/117 130/130/114
f 164/164/119 156/156/138 142/142/126
f 132/132/116 150/150/133 46/46/45
f 143/143/127 67/67/64 150/150/133
f 134/134/118 162/162/141 52/52/16
f 52/52/16 169/169/146 134/134/118
f 130/130/114 163/163/142 71/71/68
f 67/67/64 66/66/63 151/151/134
f 165/165/143 57/57/54 144/144/128
f 169/169/146 130/130/114 134/134/118
f 163/163/142 130/130/114 169/169/146
f 143/143/127 150/150/133 132/132/116
f 144/144/128 143/143/127 132/132/116
f 162/162/141 134/134/118 139/139/123
f 139/139/123 141/141/125 162/162/141
f 52/52/16 162/162/141 170/170/120
f 162/162/141 161/161/129 170/170/120
f 133/133/117 166/166/144 158/158/139
f 164/164/119 147/147/130 156/156/138
f 135/135/119 136/136/120 146/146/130
f 131/131/115 14/14/14 136/136/120
f 82/82/79 103/103/96 153/153/136
f 140/140/124 138/138/122 137/137/121
f 129/129/113 128/128/112 159/159/140
f 152/152/135 66/66/63 101/101/94
f 152/152/135 148/148/131 171/171/147
f 171/171/147 148/148/131 147/147/130
f 157/157/37 154/154/137 172/172/93
f 154/154/137 102/102/95 172/172/93
f 38/38/37 173/173/93 155/155/66
f 154/154/137 103/103/96 102/102/95
f 22/22/22 40/40/39 27/27/27
f 20/20/20 22/22/22 27/27/27
f 63/63/60 20/20/20 27/27/27
f 131/131/115 40/40/39 22/22/22
f 14/14/14 131/131/115 22/22/22
f 54/54/51 169/169/146 52/52/16
f 61/61/58 163/163/142 54/54/51
f 54/54/51 163/163/142 169/169/146
f 156/156/138 67/67/64 143/143/127
f 156/156/138 149/149/132 174/174/148
f 57/57/54 153/153/136 142/142/126
f 149/149/132 118/118/107 174/174/148
f 174/174/148 118/118/107 67/67/64
f 156/156/138 174/174/148 67/67/64
f 156/156/138 143/143/127 142/142/126
f 57/57/54 82/82/79 153/153/136
f 150/150/133 151/151/134 160/160/129
f 138/138/122 166/166/144 159/159/140
f 145/145/129 175/175/134 167/167/135
f 159/159/140 166/166/144 133/133/117
f 140/140/124 166/166/144 138/138/122
f 129/129/113 159/159/140 133/133/117
f 176/176/134 66/66/63 152/152/135
f 45/45/44 165/165/143 132/132/116
f 45/45/44 58/58/55 165/165/143
f 165/165/143 144/144/128 132/132/116
f 128/128/112 130/130/114 48/48/47
f 46/46/45 128/128/112 48/48/47
f 46/46/45 137/137/121 128/128/112
f 48/48/47 130/130/114 71/71/68
f 117/117/106 91/91/87 90/90/86
f 98/98/91 91/91/87 115/115/104
f 37/37/36 36/36/35 108/108/99
f 98/98/91 108/108/99 91/91/87
f 108/108/99 64/64/61 91/91/87
f 37/37/36 108/108/99 98/98/91
f 117/117/106 90/90/86 31/31/31
f 30/30/30 117/117/106 31/31/31
f 115/115/104 91/91/87 117/117/106
f 177/177/149 178/178/150 179/179/151
f 83/83/80 178/178/150 180/180/152
f 181/181/149 72/72/69 182/182/150
f 182/182/150 23/23/23 183/183/152
f 72/72/69 23/23/23 182/182/150
f 9/9/9 13/13/13 10/10/10
f 23/23/23 25/25/25 183/183/152
f 6/6/6 11/11/11 13/13/13
f 33/33/33 47/47/46 76/76/73
f 6/6/6 13/13/13 9/9/9
f 179/179/151 178/178/150 83/83/80
f 33/33/33 70/70/67 47/47/46
f 86/86/82 184/184/149 87/87/83
f 85/85/82 72/72/69 181/181/149
f 95/95/25 11/11/11 6/6/6
f 47/47/46 72/72/69 76/76/73
f 85/85/82 76/76/73 72/72/69
f 180/180/152 95/95/25 6/6/6
f 83/83/80 180/180/152 6/6/6
f 106/106/2 179/179/151 83/83/80
f 87/87/83 185/185/151 2/2/2
f 87/87/83 184/184/149 185/185/151
