# Blender v2.91.0 OBJ File: ''
# www.blender.org
mtllib untitled.mtl
o dagger
v 0.037500 -0.000000 0.018600
v -0.000300 -0.009600 0.018500
v 0.009100 -0.000000 0.010100
v -0.000300 0.009600 0.018500
v 0.037500 -0.000000 0.018600
v 0.009100 -0.000000 0.010100
v 0.009100 -0.000000 0.010100
v -0.000300 -0.009600 0.018500
v -0.000300 -0.009600 -0.101500
v 0.008900 0.000000 -0.101500
v 0.009100 -0.000000 0.010100
v 0.008900 0.000000 -0.101500
v -0.000300 0.009600 -0.101500
v -0.000300 0.009600 0.018500
v -0.000300 -0.000000 0.232900
v 0.037500 -0.000000 0.018600
v -0.000300 0.009600 0.018500
v -0.038100 -0.000000 0.018600
v -0.009700 -0.000000 0.010100
v -0.000300 -0.009600 0.018500
v -0.000300 0.009600 0.018500
v -0.009700 -0.000000 0.010100
v -0.038100 -0.000000 0.018600
v -0.009700 -0.000000 0.010100
v -0.009500 0.000000 -0.101500
v -0.000300 -0.009600 -0.101500
v -0.000300 -0.009600 0.018500
v -0.000300 0.014700 -0.105600
v -0.014200 0.000000 -0.105600
v -0.009500 0.000000 -0.101500
v -0.009500 0.000000 -0.101500
v -0.000300 0.009600 -0.101500
v -0.000300 0.014700 -0.105600
v -0.000300 -0.000000 0.232900
v -0.038100 -0.000000 0.018600
v -0.000300 -0.009600 0.018500
v -0.000300 -0.000000 0.232900
v -0.000300 -0.009600 0.018500
v 0.037500 -0.000000 0.018600
v -0.000300 -0.000000 0.232900
v -0.000300 0.009600 0.018500
v -0.038100 -0.000000 0.018600
v -0.000300 -0.014700 -0.105600
v 0.013500 0.000000 -0.105600
v 0.008900 0.000000 -0.101500
v 0.008900 0.000000 -0.101500
v -0.000300 -0.009600 -0.101500
v -0.000300 -0.014700 -0.105600
v 0.008900 0.000000 -0.101500
v 0.013500 0.000000 -0.105600
v -0.000300 0.014700 -0.105600
v -0.000300 0.014700 -0.105600
v -0.000300 0.009600 -0.101500
v 0.008900 0.000000 -0.101500
v -0.009500 0.000000 -0.101500
v -0.014200 0.000000 -0.105600
v -0.000300 -0.014700 -0.105600
v -0.000300 -0.014700 -0.105600
v -0.000300 -0.009600 -0.101500
v -0.009500 0.000000 -0.101500
v -0.009700 -0.000000 0.010100
v -0.000300 0.009600 0.018500
v -0.000300 0.009600 -0.101500
v -0.009500 0.000000 -0.101500
v 0.013500 0.000000 -0.105600
v -0.000300 -0.014700 -0.105600
v -0.000300 0.000000 -0.110500
v -0.000300 -0.014700 -0.105600
v -0.014200 0.000000 -0.105600
v -0.000300 0.000000 -0.110500
v -0.014200 0.000000 -0.105600
v -0.000300 0.014700 -0.105600
v -0.000300 0.000000 -0.110500
v -0.000300 0.014700 -0.105600
v 0.013500 0.000000 -0.105600
v -0.000300 0.000000 -0.110500
v -0.043300 0.014700 0.000800
v -0.043300 -0.000000 0.014600
v -0.039600 -0.000000 0.010000
v -0.039600 -0.000000 0.010000
v -0.039600 0.009600 0.000800
v -0.043300 0.014700 0.000800
v -0.043300 -0.014700 0.000800
v -0.043300 0.000000 -0.013100
v -0.039600 0.000000 -0.008500
v -0.039600 0.000000 -0.008500
v -0.039600 -0.009600 0.000800
v -0.043300 -0.014700 0.000800
v -0.039600 0.000000 -0.008500
v -0.043300 0.000000 -0.013100
v -0.043300 0.014700 0.000800
v -0.043300 0.014700 0.000800
v -0.039600 0.009600 0.000800
v -0.039600 0.000000 -0.008500
v -0.039600 -0.000000 0.010000
v -0.043300 -0.000000 0.014600
v -0.043300 -0.014700 0.000800
v -0.043300 -0.014700 0.000800
v -0.039600 -0.009600 0.000800
v -0.039600 -0.000000 0.010000
v -0.039600 -0.000000 0.010000
v 0.039000 -0.000000 0.010000
v 0.039000 0.009600 0.000800
v -0.039600 0.009600 0.000800
v 0.042700 0.014700 0.000800
v 0.039000 0.009600 0.000800
v 0.039000 -0.000000 0.010000
v 0.039000 -0.000000 0.010000
v 0.042700 -0.000000 0.014600
v 0.042700 0.014700 0.000800
v 0.042700 -0.014700 0.000800
v 0.039000 -0.009600 0.000800
v 0.039000 0.000000 -0.008500
v 0.039000 0.000000 -0.008500
v 0.042700 0.000000 -0.013100
v 0.042700 -0.014700 0.000800
v 0.039000 0.000000 -0.008500
v 0.039000 0.009600 0.000800
v 0.042700 0.014700 0.000800
v 0.042700 0.014700 0.000800
v 0.042700 0.000000 -0.013100
v 0.039000 0.000000 -0.008500
v 0.039000 -0.000000 0.010000
v 0.039000 -0.009600 0.000800
v 0.042700 -0.014700 0.000800
v 0.042700 -0.014700 0.000800
v 0.042700 -0.000000 0.014600
v 0.039000 -0.000000 0.010000
v -0.039600 0.000000 -0.008500
v 0.039000 0.000000 -0.008500
v 0.039000 -0.009600 0.000800
v -0.039600 -0.009600 0.000800
v -0.039600 0.000000 -0.008500
v -0.039600 0.009600 0.000800
v 0.039000 0.009600 0.000800
v 0.039000 0.000000 -0.008500
v -0.039600 -0.009600 0.000800
v 0.039000 -0.009600 0.000800
v 0.039000 -0.000000 0.010000
v -0.039600 -0.000000 0.010000
v 0.042700 0.014700 0.000800
v 0.042700 -0.000000 0.014600
v 0.046300 -0.000000 0.000800
v 0.042700 -0.000000 0.014600
v 0.042700 -0.014700 0.000800
v 0.046300 -0.000000 0.000800
v 0.042700 -0.014700 0.000800
v 0.042700 0.000000 -0.013100
v 0.046300 -0.000000 0.000800
v 0.042700 0.000000 -0.013100
v 0.042700 0.014700 0.000800
v 0.046300 -0.000000 0.000800
v -0.043300 -0.000000 0.014600
v -0.043300 0.014700 0.000800
v -0.046900 -0.000000 0.000800
v -0.043300 0.014700 0.000800
v -0.043300 0.000000 -0.013100
v -0.046900 -0.000000 0.000800
v -0.043300 0.000000 -0.013100
v -0.043300 -0.014700 0.000800
v -0.046900 -0.000000 0.000800
v -0.043300 -0.014700 0.000800
v -0.043300 -0.000000 0.014600
v -0.046900 -0.000000 0.000800
vt 0.062300 0.299500
vt 0.074200 0.446900
vt 0.031000 0.410300
vt 0.798100 0.221500
vt 0.810000 0.074000
vt 0.841400 0.184800
vt 0.025800 0.963500
vt 0.009600 0.920000
vt 0.512100 0.920000
vt 0.493100 0.962500
vt 0.537500 0.764400
vt 0.070100 0.763400
vt 0.051200 0.720800
vt 0.553700 0.720800
vt 0.020300 0.221500
vt 0.810000 0.074000
vt 0.798100 0.221500
vt 0.062300 0.594400
vt 0.031000 0.483600
vt 0.074200 0.446900
vt 0.798100 0.221500
vt 0.841400 0.258100
vt 0.810000 0.368900
vt 0.025800 0.876500
vt 0.493100 0.877400
vt 0.512100 0.920000
vt 0.009600 0.920000
vt 0.009600 0.720800
vt 0.042500 0.648200
vt 0.070100 0.678300
vt 0.070100 0.678300
vt 0.051200 0.720800
vt 0.009600 0.720800
vt 0.852100 0.446900
vt 0.062300 0.594400
vt 0.074200 0.446900
vt 0.852100 0.446900
vt 0.074200 0.446900
vt 0.062300 0.299500
vt 0.020300 0.221500
vt 0.798100 0.221500
vt 0.810000 0.368900
vt 0.553700 0.920000
vt 0.520800 0.992600
vt 0.493100 0.962500
vt 0.493100 0.962500
vt 0.512100 0.920000
vt 0.553700 0.920000
vt 0.070100 0.763400
vt 0.042500 0.793500
vt 0.009600 0.720800
vt 0.009600 0.720800
vt 0.051200 0.720800
vt 0.070100 0.763400
vt 0.493100 0.877400
vt 0.520800 0.847300
vt 0.553700 0.920000
vt 0.553700 0.920000
vt 0.512100 0.920000
vt 0.493100 0.877400
vt 0.537500 0.677300
vt 0.553700 0.720800
vt 0.051200 0.720800
vt 0.070100 0.678300
vt 0.895400 0.309800
vt 0.959900 0.370400
vt 0.895400 0.370400
vt 0.959900 0.370400
vt 0.895400 0.431100
vt 0.895400 0.370400
vt 0.895400 0.431100
vt 0.830900 0.370400
vt 0.895400 0.370400
vt 0.830900 0.370400
vt 0.895400 0.309800
vt 0.895400 0.370400
vt 0.591400 0.909100
vt 0.591400 0.836600
vt 0.608500 0.866500
vt 0.608500 0.866500
vt 0.608500 0.909000
vt 0.591400 0.909100
vt 0.591400 0.720800
vt 0.591400 0.648200
vt 0.608500 0.678100
vt 0.608500 0.678100
vt 0.608500 0.720800
vt 0.591400 0.720800
vt 0.608500 0.951700
vt 0.591400 0.981700
vt 0.591400 0.909100
vt 0.591400 0.909100
vt 0.608500 0.909000
vt 0.608500 0.951700
vt 0.608500 0.763300
vt 0.591400 0.793300
vt 0.591400 0.720800
vt 0.591400 0.720800
vt 0.608500 0.720800
vt 0.608500 0.763300
vt 0.608500 0.866500
vt 0.970500 0.866500
vt 0.970500 0.909000
vt 0.608500 0.909000
vt 0.987500 0.909100
vt 0.970500 0.909000
vt 0.970500 0.866500
vt 0.970500 0.866500
vt 0.987500 0.836600
vt 0.987500 0.909100
vt 0.987500 0.720800
vt 0.970500 0.720800
vt 0.970500 0.678100
vt 0.970500 0.678100
vt 0.987500 0.648200
vt 0.987500 0.720800
vt 0.970500 0.951700
vt 0.970500 0.909000
vt 0.987500 0.909100
vt 0.987500 0.909100
vt 0.987500 0.981700
vt 0.970500 0.951700
vt 0.970500 0.763300
vt 0.970500 0.720800
vt 0.987500 0.720800
vt 0.987500 0.720800
vt 0.987500 0.793300
vt 0.970500 0.763300
vt 0.608500 0.678100
vt 0.970500 0.678100
vt 0.970500 0.720800
vt 0.608500 0.720800
vt 0.608500 0.951700
vt 0.608500 0.909000
vt 0.970500 0.909000
vt 0.970500 0.951700
vt 0.608500 0.720800
vt 0.970500 0.720800
vt 0.970500 0.763300
vt 0.608500 0.763300
vt 0.830900 0.587200
vt 0.894200 0.527700
vt 0.894200 0.587200
vt 0.894200 0.527700
vt 0.957500 0.587200
vt 0.894200 0.587200
vt 0.957500 0.587200
vt 0.894200 0.647100
vt 0.894200 0.587200
vt 0.894200 0.647100
vt 0.830900 0.587200
vt 0.894200 0.587200
vt 0.658400 0.638600
vt 0.595100 0.579100
vt 0.658400 0.579100
vt 0.595100 0.579100
vt 0.658400 0.519200
vt 0.658400 0.579100
vt 0.658400 0.519200
vt 0.721700 0.579100
vt 0.658400 0.579100
vt 0.721700 0.579100
vt 0.658400 0.638600
vt 0.658400 0.579100
vn 0.1905 -0.7470 -0.6370
vn 0.1901 0.7467 -0.6374
vn 0.7154 -0.6987 0.0000
vn 0.7153 -0.6988 0.0000
vn 0.7220 -0.6919 -0.0013
vn 0.7220 0.6919 -0.0012
vn 0.7220 0.6919 -0.0013
vn 0.7219 0.6920 -0.0012
vn 0.7154 0.6987 -0.0001
vn 0.2458 0.9683 0.0434
vn -0.1905 -0.7470 -0.6370
vn -0.1901 0.7467 -0.6374
vn -0.7219 -0.6920 -0.0011
vn -0.7220 -0.6919 -0.0013
vn -0.7217 -0.6922 -0.0011
vn -0.7153 -0.6988 -0.0000
vn -0.5935 0.5580 0.5800
vn -0.5809 0.5566 0.5939
vn -0.2463 -0.9682 0.0435
vn 0.2463 -0.9682 0.0435
vn -0.2458 0.9683 0.0434
vn 0.5932 -0.5577 0.5806
vn 0.5804 -0.5563 0.5947
vn 0.5935 0.5580 0.5800
vn 0.5809 0.5566 0.5939
vn -0.5932 -0.5577 0.5806
vn -0.5805 -0.5563 0.5946
vn -0.7153 0.6989 -0.0001
vn -0.7153 0.6988 -0.0001
vn -0.7154 0.6987 -0.0001
vn -0.7220 0.6919 -0.0013
vn 0.2866 -0.2695 -0.9194
vn -0.2866 -0.2695 -0.9194
vn -0.2854 0.2684 -0.9201
vn 0.2854 0.2684 -0.9201
vn 0.7897 0.4203 0.4470
vn 0.8002 0.4149 0.4331
vn 0.7902 -0.4198 -0.4466
vn 0.8007 -0.4144 -0.4325
vn 0.7897 0.4203 -0.4470
vn 0.8002 0.4149 -0.4331
vn 0.7902 -0.4198 0.4466
vn 0.8007 -0.4144 0.4325
vn 0.0000 0.6919 0.7220
vn -0.8002 0.4149 0.4331
vn -0.7897 0.4203 0.4470
vn -0.8007 -0.4144 -0.4325
vn -0.7902 -0.4198 -0.4466
vn -0.8002 0.4149 -0.4331
vn -0.7897 0.4203 -0.4470
vn -0.8007 -0.4144 0.4325
vn -0.7902 -0.4198 0.4465
vn 0.0000 -0.6920 -0.7219
vn 0.0000 0.6919 -0.7220
vn 0.0000 -0.6919 0.7220
vn 0.9539 0.2055 0.2186
vn 0.9539 -0.2055 0.2186
vn 0.9539 -0.2055 -0.2186
vn 0.9539 0.2055 -0.2186
vn -0.9539 0.2055 0.2186
vn -0.9539 0.2055 -0.2186
vn -0.9539 -0.2055 -0.2186
vn -0.9539 -0.2055 0.2186
usemtl Default_OBJ
s 1
f 1/1/1 2/2/1 3/3/1
f 4/4/2 5/5/2 6/6/2
f 7/7/3 8/8/3 9/9/4
f 9/9/4 10/10/5 7/7/3
f 11/11/6 12/12/7 13/13/8
f 13/13/8 14/14/9 11/11/6
f 15/15/10 16/16/10 17/17/10
f 18/18/11 19/19/11 20/20/11
f 21/21/12 22/22/12 23/23/12
f 24/24/13 25/25/14 26/26/15
f 26/26/15 27/27/16 24/24/13
f 28/28/17 29/29/17 30/30/17
f 31/31/18 32/32/18 33/33/18
f 34/34/19 35/35/19 36/36/19
f 37/37/20 38/38/20 39/39/20
f 40/40/21 41/41/21 42/42/21
f 43/43/22 44/44/22 45/45/22
f 46/46/23 47/47/23 48/48/23
f 49/49/24 50/50/24 51/51/24
f 52/52/25 53/53/25 54/54/25
f 55/55/26 56/56/26 57/57/26
f 58/58/27 59/59/27 60/60/27
f 61/61/28 62/62/29 63/63/30
f 63/63/30 64/64/31 61/61/28
f 65/65/32 66/66/32 67/67/32
f 68/68/33 69/69/33 70/70/33
f 71/71/34 72/72/34 73/73/34
f 74/74/35 75/75/35 76/76/35
f 77/77/36 78/78/36 79/79/36
f 80/80/37 81/81/37 82/82/37
f 83/83/38 84/84/38 85/85/38
f 86/86/39 87/87/39 88/88/39
f 89/89/40 90/90/40 91/91/40
f 92/92/41 93/93/41 94/94/41
f 95/95/42 96/96/42 97/97/42
f 98/98/43 99/99/43 100/100/43
f 101/101/44 102/102/44 103/103/44
f 103/103/44 104/104/44 101/101/44
f 105/105/45 106/106/45 107/107/45
f 108/108/46 109/109/46 110/110/46
f 111/111/47 112/112/47 113/113/47
f 114/114/48 115/115/48 116/116/48
f 117/117/49 118/118/49 119/119/49
f 120/120/50 121/121/50 122/122/50
f 123/123/51 124/124/51 125/125/51
f 126/126/52 127/127/52 128/128/52
f 129/129/53 130/130/53 131/131/53
f 131/131/53 132/132/53 129/129/53
f 133/133/54 134/134/54 135/135/54
f 135/135/54 136/136/54 133/133/54
f 137/137/55 138/138/55 139/139/55
f 139/139/55 140/140/55 137/137/55
f 141/141/56 142/142/56 143/143/56
f 144/144/57 145/145/57 146/146/57
f 147/147/58 148/148/58 149/149/58
f 150/150/59 151/151/59 152/152/59
f 153/153/60 154/154/60 155/155/60
f 156/156/61 157/157/61 158/158/61
f 159/159/62 160/160/62 161/161/62
f 162/162/63 163/163/63 164/164/63
