<?xml version="1.0" standalone="no"?>
<svg xmlns="http://www.w3.org/2000/svg" viewBox="0 0 101.561 117.272" width="101.561" height="117.272"><polygon fill="none" stroke="#ead017" stroke-width="3" points="100.061,30.068 100.061,87.20400000000001 50.7805,115.772 1.5,87.20400000000001 1.5,30.068 50.7805,1.5"></polygon><path fill="#000000" fill-rule="nonzero" d="M14.98 14.22L14.98 14.22Q14.98 17.05 12.91 18.66Q10.84 20.27 7.62 20.27L7.62 20.27Q5.07 20.27 2.69 18.87L2.69 18.87Q1.51 18.14 0.76 16.81Q0 15.48 0 13.78L0 13.78L3.53 13.61Q3.53 15.12 4.82 15.96Q6.10 16.80 7.67 16.80L7.67 16.80Q11.17 16.80 11.17 14.34L11.17 14.34Q11.17 12.32 8.79 11.96L8.79 11.96L5.54 11.62Q3.11 11.26 1.68 9.88Q0.25 8.51 0.25 5.94Q0.25 3.36 2.30 1.68Q4.34 0 7.46 0Q10.58 0 12.49 1.58Q14.39 3.16 14.39 5.66L14.39 5.66L10.92 5.82Q10.44 3.39 7.64 3.39L7.64 3.39Q5.94 3.39 4.97 4.12Q4.00 4.84 4.00 5.84Q4.00 6.83 4.70 7.41Q5.40 7.98 6.44 8.12L6.44 8.12L9.63 8.46Q14.98 9.18 14.98 14.22Z" transform="translate(43.291, 22.5)"></path><g fill="#000000" color="#000000" transform="translate(28.780500000000004 50.772) scale(0.44)"><svg width="100.0" height="100.0" x="0.0" y="0.0" viewBox="0 0 100 100"><polygon fill="currentColor" points="69.621,7.715 69.621,5 68.423,5 68.423,7.635 66.027,7.715 63.472,6.118 61.396,7.076 64.51,9.152   64.431,13.146 50.375,33.908 43.348,40.776 38.476,46.845 22.345,55.391 21.675,76.405 22.105,76.713 23.703,58.904 24.581,68.247   27.616,70.244 25.699,78.709 28.654,93.004 28.973,95 31.05,95 29.293,92.924 29.068,82.938 32.327,91.886 32.727,93.962   34.723,93.962 32.886,91.886 30.81,78.789 30.646,77.49 35.125,67.005 41.195,66.625 44.386,70.483 44.066,92.844 45.025,95   46.862,95 44.945,92.604 47.905,76.896 49.775,92.844 50.774,95 52.691,95 50.774,92.844 51.973,67.769 54.848,62.418   55.189,57.893 58.281,50 60.438,39.419 70.42,15.381 78.325,16.18 78.325,14.982 "></polygon></svg></g></svg>