<svg width="511.999" height="511.999" xmlns="http://www.w3.org/2000/svg">

 <g>
  <title>background</title>
  <rect fill="none" id="canvas_background" height="402" width="582" y="-1" x="-1"/>
 </g>
 <g>
  <title>Layer 1</title>
  <g id="svg_1">
   <g id="svg_2">
    <path fill="#bc5757" id="svg_3" d="m510.354,111.029c-1.275,-1.592 -3.145,-2.597 -5.176,-2.781l-414.082,-37.583c-0.232,-5.7 -2.493,-11.333 -6.835,-15.675l-44.089,-44.09c-4.444,-4.444 -10.354,-6.893 -16.64,-6.893c-6.286,0 -12.195,2.449 -16.639,6.893c-4.445,4.445 -6.893,10.355 -6.893,16.641s2.448,12.195 6.893,16.64l44.089,44.088c4.444,4.445 10.354,6.893 16.64,6.893c2.365,0 4.677,-0.347 6.878,-1.016l62.687,207.577c5.105,16.904 20.392,28.13 37.79,28.13c0.984,0 1.977,-0.036 2.973,-0.109l283.493,-20.744c14.865,-1.087 27.053,-12.604 28.981,-27.384l21.512,-164.928c0.265,-2.023 -0.307,-4.066 -1.582,-5.659zm-436.7,-33.367c-1.612,1.611 -3.754,2.499 -6.033,2.499c-2.279,0 -4.421,-0.887 -6.033,-2.499l-44.089,-44.089c-1.612,-1.611 -2.499,-3.754 -2.499,-6.032c0,-2.278 0.887,-4.422 2.499,-6.034c1.612,-1.611 3.754,-2.499 6.033,-2.499s4.421,0.888 6.033,2.499l44.089,44.089c3.327,3.327 3.327,8.74 0,12.066zm184.621,23.238l3.382,54.872l-70.111,-2.554l-11.063,-59.378l77.792,7.06zm-170.747,-15.498l77.435,7.029l11.221,60.228l-69.106,-2.518l-19.55,-64.739zm45.587,150.953l-21.453,-71.037l67.338,2.453l12.536,67.286l-58.421,1.298zm43.739,78.428c-11.56,0.843 -21.959,-6.309 -25.308,-17.397l-13.93,-46.127l56.704,-1.26l11.673,62.653l-29.139,2.131zm17.508,-146.452l68.222,2.485l3.857,62.576l-59.71,1.327l-12.369,-66.388zm26.683,143.219l-11.531,-61.889l57.849,-1.286l3.668,59.517l-49.986,3.658zm117.995,-8.634l-53.047,3.881l-3.621,-58.756l58.163,-1.292l-1.495,56.167zm1.895,-71.179l-59.486,1.322l-3.802,-61.694l64.832,2.361l-1.544,58.011zm1.943,-73.007l-66.159,-2.41l-3.331,-54.048l70.821,6.428l-1.331,50.03zm68.316,138.906l-57.119,4.18l1.475,-55.4l59.873,-1.331l-4.229,52.551zm5.438,-67.581l-60.683,1.348l1.521,-57.131l63.465,2.312l-4.303,53.471zm5.507,-68.437l-64.27,-2.341l1.31,-49.218l66.622,6.047l-3.662,45.512zm53.411,118.058c-1.01,7.752 -7.404,13.793 -15.201,14.364l-34.017,2.489l4.166,-51.779l49.752,-1.106l-4.7,36.032zm6.663,-51.079l-50.505,1.123l4.232,-52.589l52.736,1.921l-6.463,49.545zm8.411,-64.485l-53.481,-1.948l3.597,-44.703l55.314,5.021l-5.43,41.63z"/>
   </g>
  </g>
  <g id="svg_4">
   <g id="svg_5">
    <path fill="#bc5757" id="svg_6" d="m439.855,445.804l0,-17.973l16.548,0l0,0c4.142,0 7.5,-3.358 7.5,-7.5c0,-4.142 -3.358,-7.5 -7.5,-7.5l-312.363,0c-2.919,0 -5.516,-1.398 -7.123,-3.835c-1.607,-2.438 -1.87,-5.374 -0.72,-8.058l21.185,-49.432c1.632,-3.807 -0.132,-8.216 -3.939,-9.848c-3.807,-1.632 -8.216,0.131 -9.848,3.939l-21.185,49.431c-3.125,7.293 -2.383,15.601 1.984,22.225c4.367,6.623 11.711,10.578 19.646,10.578l8.267,0l0,17.973c-13.786,3.375 -24.048,15.829 -24.048,30.64c0,17.396 14.152,31.549 31.548,31.549s31.548,-14.153 31.548,-31.549c0,-14.811 -10.262,-27.265 -24.048,-30.64l0,-17.973l257.548,0l0,17.973c-13.786,3.375 -24.048,15.829 -24.048,30.64c0,17.396 14.152,31.549 31.548,31.549s31.548,-14.153 31.548,-31.549c0,-14.811 -10.262,-27.265 -24.048,-30.64zm-263.5,30.639c0,9.125 -7.423,16.549 -16.548,16.549s-16.548,-7.424 -16.548,-16.549s7.423,-16.548 16.548,-16.548s16.548,7.424 16.548,16.548zm256,16.549c-9.125,0 -16.548,-7.424 -16.548,-16.549s7.423,-16.548 16.548,-16.548s16.548,7.424 16.548,16.548c0,9.125 -7.423,16.549 -16.548,16.549z"/>
   </g>
  </g>
  <g id="svg_7"/>
  <g id="svg_8"/>
  <g id="svg_9"/>
  <g id="svg_10"/>
  <g id="svg_11"/>
  <g id="svg_12"/>
  <g id="svg_13"/>
  <g id="svg_14"/>
  <g id="svg_15"/>
  <g id="svg_16"/>
  <g id="svg_17"/>
  <g id="svg_18"/>
  <g id="svg_19"/>
  <g id="svg_20"/>
  <g id="svg_21"/>
 </g>
</svg>