<svg width="294.976" height="294.976" xmlns="http://www.w3.org/2000/svg">

 <g>
  <title>background</title>
  <rect fill="none" id="canvas_background" height="402" width="582" y="-1" x="-1"/>
 </g>
 <g>
  <title>Layer 1</title>
  <g id="svg_1">
   <path id="svg_2" d="m185.274,126.15c-1.604,-5.116 -6.51,-8.479 -11.871,-8.479l-0.031,0l-24.5,0.06l-24.514,-47.953c-2.465,-4.822 -7.591,-6.766 -12.711,-6.699c-0.427,0.006 -46.075,0.004 -46.48,-0.004c-5.355,-0.103 -10.677,2.076 -13.016,7.202l-40.981,89.784c-2.867,6.28 -0.1,13.695 6.181,16.562c6.274,2.866 13.693,0.104 16.562,-6.181l19.624,-42.993c0,11.127 -0.286,141.401 -0.286,152.527c0,8.524 7.111,15.389 15.726,14.982c8.067,-0.38 14.274,-7.329 14.274,-15.406l0,-82.36c0,-2.832 2.296,-5.128 5.128,-5.128l0,0c2.832,0 5.128,2.296 5.128,5.128l0,82.36c0,8.077 6.207,15.026 14.274,15.406c8.614,0.406 15.726,-6.458 15.726,-14.982c0,-109.212 -0.288,-157.506 -0.288,-157.506l6.885,13.469c2.137,4.18 6.436,6.811 11.13,6.811l0.03,0l32.17,-0.078c8.197,-0.02 14.533,-7.928 11.84,-16.522z"/>
   <path id="svg_3" d="m88.378,57.477c15.87,0 28.743,-12.858 28.743,-28.738c0,-15.883 -12.873,-28.739 -28.743,-28.739c-15.875,0 -28.75,12.856 -28.75,28.738c0,15.88 12.875,28.739 28.75,28.739z"/>
   <path id="svg_4" d="m277.438,174.957l-104.036,0c-4.143,0 -7.5,3.357 -7.5,7.5c0,4.142 3.357,7.5 7.5,7.5l0.943,0l11.366,90.351c0.894,7.1 6.931,12.425 14.086,12.425l51.246,0c7.155,0 13.192,-5.325 14.085,-12.425l11.366,-90.351l0.943,0c4.143,0 7.5,-3.358 7.5,-7.5c0.001,-4.143 -3.356,-7.5 -7.499,-7.5zm-67.474,60.004c0.517,4.11 -2.396,7.861 -6.505,8.378c-0.318,0.04 -0.634,0.06 -0.946,0.06c-3.725,0 -6.954,-2.772 -7.432,-6.564l-5.896,-46.877l15.118,0l5.661,45.003z"/>
   <path id="svg_5" d="m201.402,192.245554c0.158,1.324 0.955,2.48 2.132,3.105c1.178,0.626 2.586,0.636 3.771,0.025l18.143,-9.331c1.628,-0.837 2.497,-2.658 2.123,-4.45l-3.62,-17.355c-0.247,-1.182 -1.005,-2.192 -2.069,-2.76c-1.064,-0.568 -2.326,-0.635 -3.444,-0.182l-16.893,6.849c-1.701,0.689 -2.729,2.433 -2.512,4.255l2.369,19.841z"/>
   <path stroke="null" id="svg_24" d="m235.002356,47.203635l-13.999088,-2.372479l5.157561,-2.577059c2.836646,-1.417407 5.408633,-2.789549 5.715509,-3.049207c0.762291,-0.644975 -8.730904,-14.682593 -9.921494,-14.670973c-0.523368,0.005678 -4.170281,5.441315 -8.104239,12.080488c-3.962427,6.687116 -7.905924,11.779867 -8.841535,11.418048c-11.073543,-4.28184 -20.108718,-8.61412 -20.108718,-9.641913c0,-0.702034 3.474412,-6.964504 7.72096,-13.916611l7.720964,-12.640173l21.051474,0l21.051474,0l5.495018,8.316332l5.495064,8.316332l5.732556,-2.814255c3.97393,-1.950934 5.487096,-2.231075 4.932345,-0.913329c-4.884319,11.603601 -12.172493,25.133604 -13.468001,25.002357c-0.896926,-0.090798 -7.93034,-1.232717 -15.629845,-2.537556l-0.000004,-0.000004zm-65.289799,51.768624c-5.327458,-8.779019 -10.102096,-16.998702 -10.610259,-18.266016c-0.521519,-1.300447 0.997936,-5.947379 3.488305,-10.668154l4.412264,-8.364098l-4.510438,-2.549604c-6.002462,-3.392959 -3.771302,-4.437967 12.15153,-5.691421l12.584233,-0.990615l4.936124,12.480434c2.714908,6.864233 5.283521,13.366909 5.708091,14.450475c0.442779,1.130037 -1.676314,0.378164 -4.969674,-1.763308l-5.741591,-3.73344l-4.008071,7.403696c-2.2044,4.0721 -4.039327,7.857515 -4.077549,8.412033c-0.038313,0.554517 6.727383,1.189082 15.034759,1.410099l15.104282,0.401833l0.985705,10.572536c0.54216,5.814929 0.873684,10.650258 0.736792,10.74519c-0.136884,0.094838 -7.288973,0.608993 -15.893512,1.142437l-15.644644,0.969862l-9.686346,-15.961952l0,0.000012zm59.622279,15.51157c-9.145802,-13.209243 -9.30477,-12.226711 4.288773,-26.504888l8.726132,-9.165627l-0.926792,6.697958l-0.926833,6.697962l9.778619,0c5.37823,0 9.778668,-0.41157 9.778668,-0.914536c0,-0.503049 -2.984049,-6.152905 -6.63119,-12.555397c-3.647141,-6.402492 -6.617342,-12.177743 -6.600476,-12.8339c0.037867,-1.471289 19.155699,-13.620465 20.064562,-12.750774c0.36012,0.344607 3.908,6.482192 7.884187,13.63922l7.229526,13.012584l-9.727529,15.014535c-5.35022,8.257892 -10.490597,15.819942 -11.423004,16.804452c-0.932514,0.98451 -6.146595,2.187793 -11.586892,2.673876c-10.384191,0.927953 -10.101508,0.704448 -11.624069,9.189727c-0.266445,1.484975 -3.373452,-1.884485 -8.303684,-9.005199l0,0.000008z" stroke-opacity="null" stroke-width="null" fill="#bc5757"/>
  </g>
  <g id="svg_6"/>
  <g id="svg_7"/>
  <g id="svg_8"/>
  <g id="svg_9"/>
  <g id="svg_10"/>
  <g id="svg_11"/>
  <g id="svg_12"/>
  <g id="svg_13"/>
  <g id="svg_14"/>
  <g id="svg_15"/>
  <g id="svg_16"/>
  <g id="svg_17"/>
  <g id="svg_18"/>
  <g id="svg_19"/>
  <g id="svg_20"/>
 </g>
</svg>