<?xml version="1.0" standalone="no"?>
<!DOCTYPE svg PUBLIC "-//W3C//DTD SVG 1.1//EN" "http://www.w3.org/Graphics/SVG/1.1/DTD/svg11.dtd" >
<svg xmlns="http://www.w3.org/2000/svg" xmlns:xlink="http://www.w3.org/1999/xlink" version="1.1">
<metadata></metadata>
<defs>
<font id="goethebold" horiz-adv-x="921" >
<font-face units-per-em="2048" ascent="1434" descent="-614" />
<missing-glyph horiz-adv-x="614" />
<glyph horiz-adv-x="0" />
<glyph unicode="&#xd;" horiz-adv-x="0" />
<glyph unicode=" "  horiz-adv-x="614" />
<glyph unicode="&#x09;" horiz-adv-x="614" />
<glyph unicode="&#xa0;" horiz-adv-x="614" />
<glyph unicode="!" horiz-adv-x="307" d="M0 0v205h205v-205h-205zM0 1126h205v-819h-205v819z" />
<glyph unicode="&#x22;" horiz-adv-x="512" d="M0 1229h410v-307h-410v307z" />
<glyph unicode="#" horiz-adv-x="1024" d="M614 307h-204v205h-103v-205h-205v205h-102v102h205v205h-103v103h205v204h205v-204h102v204h205v-204h103v-103h-205v-205h102v-102h-205v-205zM512 614v205h-102v-205h102z" />
<glyph unicode="$" d="M0 0v307h205v-102h102v307h-102v102h-103v103h-102v205h102v102h103v102h102v205h205v-205h307v-307h-205v103h-102v-308h102v-102h103v-102h102v-205h-102v-103h-103v-102h-102v-205h-205v205h-307zM205 717h102v205h-102v-205zM614 205v205h-102v-205h102z" />
<glyph unicode="%" horiz-adv-x="1126" d="M512 102v103h-102v-205h-205v205h102v205h103v204h-308v103h-102v307h102v102h717v-204h-102v-205h-103v-205h308v-102h102v-308h-102v-102h-308v102h-102zM717 410v-308h102v308h-102zM205 1024v-307h102v307h-102zM512 922h102v102h-102v-102z" />
<glyph unicode="&#x26;" horiz-adv-x="1126" d="M922 512v-102h-103v-103h-102v-102h102v-103h103v-102h-205v102h-205v-102h-307v102h-103v103h-102v307h102v102h103v103h-103v307h103v102h205v-102h102v-307h-102v-103h102v-102h102v-102h103v102h-103v102h410v-102h-102zM512 307h-102v205h-205v-307h102v-103h103 v103h102v102z" />
<glyph unicode="'" horiz-adv-x="307" d="M0 1229h205v-307h-205v307z" />
<glyph unicode="(" horiz-adv-x="512" d="M102 1126h103v103h205v-103h-103v-307h-102v-717h102v-307h103v-102h-205v102h-103v307h-102v717h102v307z" />
<glyph unicode=")" horiz-adv-x="512" d="M0 1126v103h205v-103h102v-307h103v-717h-103v-307h-102v-102h-205v102h102v307h103v717h-103v307h-102z" />
<glyph unicode="*" horiz-adv-x="716" d="M0 1126h205v103h205v-103h204v-102h-102v-102h102v-103h-204v-102h-205v102h-205v103h102v102h-102v102z" />
<glyph unicode="+" d="M512 102h-205v308h-307v102h307v307h205v-307h307v-102h-307v-308z" />
<glyph unicode="," horiz-adv-x="409" d="M0 -102v102h102v205h205v-205h-102v-102h-205z" />
<glyph unicode="-" horiz-adv-x="819" d="M717 410h-717v102h717v-102z" />
<glyph unicode="." horiz-adv-x="307" d="M0 0v205h205v-205h-205z" />
<glyph unicode="/" horiz-adv-x="716" d="M0 0h102v307h103v307h102v308h103v307h204v-307h-102v-308h-102v-307h-103v-307h-102v-307h-205v307z" />
<glyph unicode="0" d="M512 102v205h102v512h-102v205h-205v-205h-102v-512h102v-205h205zM819 819v-512h-102v-205h-103v-102h-409v102h-103v205h-102v512h102v205h103v102h409v-102h103v-205h102z" />
<glyph unicode="1" d="M512 102h102v-102h-409v102h102v820h-102v102h102v102h205v-1024z" />
<glyph unicode="2" d="M0 0v205h102v102h103v103h102v102h103v102h102v103h102v205h-102v102h-307v-102h-205v102h102v102h512v-102h103v-102h102v-205h-102v-103h-103v-102h-102v-102h-102v-103h-103v-102h-102v-103h409v103h205v-205h-819z" />
<glyph unicode="3" d="M512 102v103h102v205h-102v102h-307v102h307v103h102v205h-102v102h-307v-102h-205v102h102v102h512v-102h103v-102h102v-205h-102v-103h-103v-102h103v-102h102v-205h-102v-103h-103v-102h-512v102h-102v103h205v-103h307z" />
<glyph unicode="4" d="M614 512h205v-102h-205v-308h103v-102h-410v102h103v308h-410v204h102v205h103v307h409v-614zM307 819v-205h-102v-102h205v307h-103z" />
<glyph unicode="5" d="M512 102v103h102v307h-102v102h-512v308h102v204h717v-102h-512v-102h-102v-205h409v-103h103v-102h102v-307h-102v-103h-103v-102h-512v102h-102v103h205v-103h307z" />
<glyph unicode="6" d="M512 102v103h102v307h-102v102h-205v-102h-102v-307h102v-103h205zM717 205v-103h-103v-102h-409v102h-103v103h-102v614h102v103h103v102h102v102h410v-102h-307v-102h-103v-103h-102v-102h409v-103h103v-102h102v-307h-102z" />
<glyph unicode="7" d="M512 717v205h102v102h-409v-102h-205v204h819v-204h-102v-205h-103v-307h-102v-410h-205v410h103v307h102z" />
<glyph unicode="8" d="M717 410h102v-205h-102v-103h-103v-102h-409v102h-103v103h-102v205h102v102h103v102h-103v103h-102v205h102v102h103v102h409v-102h103v-102h102v-205h-102v-103h-103v-102h103v-102zM307 512v-102h-102v-205h102v-103h205v103h102v205h-102v102h-205zM205 717h102v-103 h205v103h102v205h-102v102h-205v-102h-102v-205z" />
<glyph unicode="9" d="M512 102v-102h-307v102h205v103h102v102h102v103h-409v102h-103v102h-102v308h102v102h103v102h409v-102h103v-102h102v-615h-102v-102h-103v-103h-102zM307 512h205v102h102v308h-102v102h-205v-102h-102v-308h102v-102z" />
<glyph unicode=":" horiz-adv-x="307" d="M0 0v205h205v-205h-205zM0 717h205v-205h-205v205z" />
<glyph unicode=";" horiz-adv-x="409" d="M0 0h102v205h205v-205h-102v-102h-205v102zM307 717v-205h-205v205h205z" />
<glyph unicode="&#x3c;" horiz-adv-x="614" d="M512 102h-205v103h-102v102h-103v103h-102v102h102v102h103v103h102v102h205v-102h-102v-103h-103v-102h-102v-102h102v-103h103v-102h102v-103z" />
<glyph unicode="=" horiz-adv-x="819" d="M717 410v-103h-717v103h717zM0 614h717v-102h-717v102z" />
<glyph unicode="&#x3e;" horiz-adv-x="614" d="M307 307v-102h-102v-103h-205v103h102v102h103v103h102v102h-102v102h-103v103h-102v102h205v-102h102v-103h103v-102h102v-102h-102v-103h-103z" />
<glyph unicode="?" d="M614 512h-102v-205h-205v205h103v102h102v103h102v205h-102v102h-205v-102h-102v-103h-205v103h102v102h103v102h409v-102h103v-102h102v-205h-102v-103h-103v-102zM512 0h-205v205h205v-205z" />
<glyph unicode="@" horiz-adv-x="1228" d="M1024 410v-103h-614v103h-103v204h103v103h409v-307h103v307h-103v102h-102v103h-307v-103h-103v-102h-102v-410h102v-102h103v-103h307v-102h-410v102h-205v205h-102v410h102v205h205v102h512v-102h205v-205h102v-307h-102zM614 614h-102v-204h102v204z" />
<glyph unicode="A" horiz-adv-x="1126" d="M0 0v102h102v205h103v307h102v308h103v102h-103v102h307v-204h103v-308h102v-307h103v-205h102v-102h-410v102h103v205h-103v103h-204v-103h-103v-205h103v-102h-410zM614 512v102h-204v-102h204z" />
<glyph unicode="B" horiz-adv-x="1024" d="M0 0v102h102v922h-102v102h717v-102h102v-102h103v-205h-103v-103h-102v-102h102v-102h103v-205h-103v-103h-102v-102h-717zM717 410h-103v102h-307v-410h307v103h103v205zM614 614v103h103v205h-103v102h-307v-410h307z" />
<glyph unicode="C" horiz-adv-x="1024" d="M717 205v102h205v-205h-205v-102h-410v102h-205v205h-102v512h102v205h205v102h615v-307h-205v103h-103v102h-204v-102h-103v-103h-102v-512h102v-102h103v-103h204v103h103z" />
<glyph unicode="D" horiz-adv-x="1024" d="M512 102v103h102v102h103v512h-103v103h-102v102h-205v-922h205zM0 0v102h102v922h-102v102h614v-102h205v-205h103v-512h-103v-205h-205v-102h-614z" />
<glyph unicode="E" horiz-adv-x="1024" d="M0 0v102h102v922h-102v102h922v-204h-205v102h-410v-410h205v103h205v-307h-205v102h-205v-410h410v103h205v-205h-922z" />
<glyph unicode="F" horiz-adv-x="1024" d="M0 0v102h102v922h-102v102h922v-204h-205v102h-410v-410h205v103h205v-307h-205v102h-205v-410h103v-102h-410z" />
<glyph unicode="G" horiz-adv-x="1024" d="M717 205v307h-205v102h410v-614h-615v102h-205v205h-102v512h102v205h205v102h615v-307h-205v103h-103v102h-204v-102h-103v-103h-102v-512h102v-102h103v-103h204v103h103z" />
<glyph unicode="H" horiz-adv-x="1126" d="M0 0v102h102v922h-102v102h410v-102h-103v-410h410v410h-103v102h410v-102h-102v-922h102v-102h-410v102h103v410h-410v-410h103v-102h-410z" />
<glyph unicode="I" horiz-adv-x="512" d="M0 0v102h102v922h-102v102h410v-102h-103v-922h103v-102h-410z" />
<glyph unicode="J" horiz-adv-x="1024" d="M512 102v-102h-307v102h-205v205h205v-102h102v-103h103v103h102v102h102v717h-102v102h410v-102h-103v-717h-102v-205h-205z" />
<glyph unicode="K" horiz-adv-x="1024" d="M512 102h102v205h-102v205h-205v-410h103v-102h-410v102h102v922h-102v102h410v-102h-103v-307h103v102h102v103h102v102h-102v102h410v-102h-103v-102h-102v-103h-103v-102h-102v-103h102v-102h103v-205h102v-205h103v-102h-410v102z" />
<glyph unicode="L" horiz-adv-x="1024" d="M0 0v102h102v922h-102v102h410v-102h-103v-922h410v103h205v-205h-922z" />
<glyph unicode="M" horiz-adv-x="1331" d="M0 0v102h102v922h-102v102h307v-102h103v-102h102v-103h205v103h102v102h103v102h307v-102h-103v-922h103v-102h-410v102h103v717h-103v-102h-102v-205h-205v205h-102v102h-103v-717h103v-102h-410z" />
<glyph unicode="N" horiz-adv-x="1126" d="M0 0v102h102v922h-102v102h307v-102h103v-205h102v-205h102v-204h103v614h-103v102h410v-102h-102v-1024h-205v102h-103v103h-102v205h-102v204h-103v-512h103v-102h-410z" />
<glyph unicode="O" horiz-adv-x="1126" d="M717 205v102h102v512h-102v103h-103v102h-204v-102h-103v-103h-102v-512h102v-102h103v-103h204v103h103zM922 307v-205h-205v-102h-410v102h-205v205h-102v512h102v205h205v102h410v-102h205v-205h102v-512h-102z" />
<glyph unicode="P" horiz-adv-x="1024" d="M0 0v102h102v922h-102v102h717v-102h102v-102h103v-205h-103v-103h-102v-102h-410v-410h103v-102h-410zM614 614v103h103v205h-103v102h-307v-410h307z" />
<glyph unicode="Q" horiz-adv-x="1126" d="M1024 -205h-307v103h-103v102h-204v-102h-205v102h102v102h-205v205h-102v512h102v205h205v102h410v-102h205v-205h102v-512h-102v-205h-205v-102h102v-102h205v-103zM819 819h-102v103h-103v102h-204v-102h-103v-103h-102v-512h102v-102h103v-103h204v103h103v102h102 v512z" />
<glyph unicode="R" horiz-adv-x="1024" d="M0 0v102h102v922h-102v102h717v-102h102v-102h103v-205h-103v-103h-102v-102h-103v-102h103v-103h102v-205h103v-102h-205v102h-103v205h-102v103h-102v102h-103v-410h103v-102h-410zM614 614v103h103v205h-103v102h-307v-410h307z" />
<glyph unicode="S" d="M512 102v103h102v205h-102v102h-307v102h-103v103h-102v205h102v102h103v102h614v-307h-205v103h-102v102h-205v-102h-102v-205h102v-103h307v-102h103v-102h102v-205h-102v-103h-103v-102h-614v307h205v-102h102v-103h205z" />
<glyph unicode="T" d="M512 102h102v-102h-409v102h102v922h-102v-102h-205v204h819v-204h-205v102h-102v-922z" />
<glyph unicode="U" horiz-adv-x="1228" d="M512 102h102v103h103v102h102v717h-102v102h409v-102h-102v-717h-102v-205h-205v-102h-307v102h-205v205h-103v717h-102v102h410v-102h-103v-717h103v-102h102v-103z" />
<glyph unicode="V" horiz-adv-x="1126" d="M0 1126h410v-102h-103v-205h103v-307h204v307h103v205h-103v102h410v-102h-102v-205h-103v-307h-102v-307h-103v-205h-204v205h-103v307h-102v307h-103v205h-102v102z" />
<glyph unicode="W" horiz-adv-x="1536" d="M1024 205v-205h-205v205h-205v-205h-204v205h-103v307h-102v307h-103v205h-102v102h410v-102h-103v-205h103v-307h204v307h205v-307h205v307h102v205h-102v102h410v-102h-103v-205h-102v-307h-103v-307h-102z" />
<glyph unicode="X" horiz-adv-x="1126" d="M0 0v102h102v103h103v205h102v102h103v102h-103v103h-102v205h-103v102h-102v102h410v-102h-103v-102h103v-205h204v205h103v102h-103v102h410v-102h-102v-102h-103v-205h-102v-103h-103v-102h103v-102h102v-205h103v-103h102v-102h-410v102h103v103h-103v205h-204v-205 h-103v-103h103v-102h-410z" />
<glyph unicode="Y" horiz-adv-x="1126" d="M0 1126h410v-102h-103v-102h103v-205h204v205h103v102h-103v102h410v-102h-102v-102h-103v-205h-102v-103h-103v-512h103v-102h-410v102h103v512h-103v103h-102v205h-103v102h-102v102z" />
<glyph unicode="Z" d="M0 0v205h102v102h103v205h102v102h103v205h102v103h102v102h-409v-102h-205v204h819v-204h-102v-103h-103v-205h-102v-102h-102v-205h-103v-102h-102v-103h409v103h205v-205h-819z" />
<glyph unicode="[" horiz-adv-x="512" d="M0 -307v1536h410v-103h-205v-1331h205v-102h-410z" />
<glyph unicode="\" horiz-adv-x="716" d="M0 1229h205v-307h102v-308h103v-307h102v-307h102v-307h-204v307h-103v307h-102v307h-103v308h-102v307z" />
<glyph unicode="]" horiz-adv-x="512" d="M0 -205h205v1331h-205v103h410v-1536h-410v102z" />
<glyph unicode="^" horiz-adv-x="716" d="M205 922h-205v102h102v102h103v103h205v-103h102v-102h102v-102h-204v102h-205v-102z" />
<glyph unicode="_" d="M0 0h819v-102h-819v102z" />
<glyph unicode="`" horiz-adv-x="512" d="M0 1126v103h205v-103h102v-102h103v-102h-205v102h-103v102h-102z" />
<glyph unicode="a" d="M307 307h-102v-205h205v103h102v205h-205v-103zM102 102h-102v205h102v103h103v102h307v205h-205v-103h-205v103h103v102h409v-102h103v-615h102v-102h-717v102z" />
<glyph unicode="b" horiz-adv-x="1024" d="M0 0v102h102v1024h-102v103h307v-410h410v-102h102v-103h103v-409h-103v-103h-102v-102h-717zM410 717v-103h-103v-409h103v-103h204v103h103v409h-103v103h-204z" />
<glyph unicode="c" d="M512 102v103h102v102h205v-102h-102v-103h-103v-102h-409v102h-103v103h-102v409h102v103h103v102h614v-307h-205v102h-102v103h-205v-103h-102v-409h102v-103h205z" />
<glyph unicode="d" horiz-adv-x="1024" d="M512 102v103h102v409h-102v103h-205v-103h-102v-409h102v-103h205zM205 0v102h-103v103h-102v409h102v103h103v102h409v307h-102v103h307v-1127h103v-102h-717z" />
<glyph unicode="e" d="M512 102v103h205v-103h-103v-102h-409v102h-103v103h-102v409h102v103h103v102h409v-102h103v-103h102v-204h-614v-205h102v-103h205zM614 512v102h-102v103h-205v-103h-102v-102h409z" />
<glyph unicode="f" horiz-adv-x="512" d="M0 0v102h102v615h-102v102h102v205h103v102h102v103h307v-103h-204v-102h-103v-205h103v-102h-103v-615h103v-102h-410z" />
<glyph unicode="g" horiz-adv-x="1024" d="M512 102v103h102v409h-102v103h-205v-103h-102v-409h102v-103h205zM717 -205v-102h-103v-103h-409v103h307v102h102v205h-409v102h-103v103h-102v409h102v103h103v102h717v-102h-103v-922h-102z" />
<glyph unicode="h" horiz-adv-x="1024" d="M512 102h102v512h-102v103h-102v-103h-103v-512h103v-102h-410v102h102v1024h-102v103h307v-410h307v-102h103v-103h102v-512h103v-102h-410v102z" />
<glyph unicode="i" horiz-adv-x="512" d="M102 1229h205v-205h-205v205zM0 0v102h102v615h-102v102h307v-717h103v-102h-410z" />
<glyph unicode="j" horiz-adv-x="409" d="M102 1229h205v-205h-205v205zM102 -410h-307v103h205v102h102v922h-102v102h307v-1024h-102v-102h-103v-103z" />
<glyph unicode="k" horiz-adv-x="1024" d="M512 102h102v103h-102v102h-205v-205h103v-102h-410v102h102v1024h-102v103h307v-717h103v102h102v103h-102v102h409v-102h-102v-103h-103v-102h-102v-102h102v-103h103v-102h102v-103h103v-102h-410v102z" />
<glyph unicode="l" horiz-adv-x="512" d="M0 0v102h102v1024h-102v103h307v-1127h103v-102h-410z" />
<glyph unicode="m" horiz-adv-x="1536" d="M512 102h102v512h-102v103h-102v-103h-103v-512h103v-102h-410v102h102v615h-102v102h614v-102h205v102h307v-102h103v-103h102v-512h103v-102h-410v102h102v512h-102v103h-102v-103h-103v-512h103v-102h-410v102z" />
<glyph unicode="n" horiz-adv-x="1024" d="M512 102h102v512h-102v103h-102v-103h-103v-512h103v-102h-410v102h102v615h-102v102h614v-102h103v-103h102v-512h103v-102h-410v102z" />
<glyph unicode="o" d="M512 102v103h102v409h-102v103h-205v-103h-102v-409h102v-103h205zM717 205v-103h-103v-102h-409v102h-103v103h-102v409h102v103h103v102h409v-102h103v-103h102v-409h-102z" />
<glyph unicode="p" horiz-adv-x="1024" d="M0 -410v103h102v1024h-102v102h717v-102h102v-103h103v-409h-103v-103h-102v-102h-410v-307h103v-103h-410zM410 717v-103h-103v-409h103v-103h204v103h103v409h-103v103h-204z" />
<glyph unicode="q" horiz-adv-x="1024" d="M512 102v103h102v409h-102v103h-205v-103h-102v-409h102v-103h205zM205 0v102h-103v103h-102v409h102v103h103v102h717v-102h-103v-1024h103v-103h-410v103h102v307h-409z" />
<glyph unicode="r" d="M0 0v102h102v615h-102v102h717v-102h102v-103h-205v103h-204v-103h-103v-512h103v-102h-410z" />
<glyph unicode="s" horiz-adv-x="819" d="M512 102v205h-205v103h-205v102h-102v205h102v102h615v-307h-205v102h-102v103h-205v-205h205v-102h204v-103h103v-205h-103v-102h-614v307h205v-102h102v-103h205z" />
<glyph unicode="t" horiz-adv-x="512" d="M102 1229h205v-410h103v-102h-103v-615h205v-102h-307v102h-103v615h-102v102h102v410z" />
<glyph unicode="u" horiz-adv-x="1024" d="M512 102v103h102v512h-102v102h307v-717h103v-102h-615v102h-102v103h-103v512h-102v102h307v-614h103v-103h102z" />
<glyph unicode="v" d="M512 717h-205v-205h205v205zM614 512v-307h-102v-205h-205v205h-102v307h-103v205h-102v102h819v-102h-102v-205h-103z" />
<glyph unicode="w" horiz-adv-x="1126" d="M922 512h-103v-307h-102v-205h-410v205h-102v307h-103v205h-102v102h410v-102h-103v-205h410v205h-103v102h410v-102h-102v-205z" />
<glyph unicode="x" d="M512 102v103h-205v-103h205zM0 0v102h102v103h103v102h102v205h-102v102h-103v103h-102v102h819v-102h-102v-103h-103v-102h-102v-205h102v-102h103v-103h102v-102h-819zM307 614h205v103h-205v-103z" />
<glyph unicode="y" d="M0 -410v103h102v102h103v205h102v205h-102v307h-103v205h-102v102h819v-102h-102v-205h-103v-307h-102v-205h-102v-205h-103v-102h-102v-103h-205zM307 512h205v205h-205v-205z" />
<glyph unicode="z" horiz-adv-x="819" d="M512 102v103h205v-205h-717v205h102v102h103v103h102v102h103v102h102v103h-307v-103h-205v205h717v-205h-103v-102h-102v-102h-102v-103h-103v-102h-102v-103h307z" />
<glyph unicode="{" horiz-adv-x="716" d="M205 1126h102v103h307v-103h-204v-614h-103v-102h103v-615h204v-102h-307v102h-102v615h-205v102h205v614z" />
<glyph unicode="|" horiz-adv-x="307" d="M0 -307v1536h205v-1536h-205z" />
<glyph unicode="}" horiz-adv-x="716" d="M0 1126v103h307v-103h103v-614h204v-102h-204v-615h-103v-102h-307v102h205v615h102v102h-102v614h-205z" />
<glyph unicode="~" horiz-adv-x="819" d="M102 1229h308v-103h102v103h205v-103h-103v-102h-307v102h-102v-102h-205v102h102v103z" />
<glyph unicode="&#xa1;" horiz-adv-x="307" d="M0 -307v819h205v-819h-205zM0 614v205h205v-205h-205z" />
<glyph unicode="&#xa2;" d="M614 307h205v-102h-102v-103h-103v-102h-102v-205h-205v205h-102v102h-103v103h-102v409h102v103h103v102h102v205h205v-205h307v-307h-205v102h-102v-409h102v102zM307 614h-102v-409h102v409z" />
<glyph unicode="&#xa3;" d="M0 0v102h102v103h103v409h-103v103h103v307h102v102h307v-102h103v-102h-205v102h-102v-307h204v-103h-204v-409h-103v-103h307v103h205v-205h-819z" />
<glyph unicode="&#xa4;" horiz-adv-x="819" d="M717 410h-103v-103h103v-102h-717v102h102v103h-102v204h102v103h-102v102h717v-102h-103v-103h103v-204zM410 717h-103v-103h-102v-204h102v-103h103v103h102v204h-102v103z" />
<glyph unicode="&#xa5;" horiz-adv-x="1126" d="M0 1126h410v-102h-103v-102h103v-205h204v205h103v102h-103v102h410v-102h-102v-102h-103v-205h-102v-103h102v-102h-205v-102h205v-103h-205v-205h103v-102h-410v102h103v205h-205v103h205v102h-205v102h102v103h-102v205h-103v102h-102v102z" />
<glyph unicode="&#xa6;" horiz-adv-x="307" d="M0 -307v614h205v-614h-205zM0 614v615h205v-615h-205z" />
<glyph unicode="&#xa7;" horiz-adv-x="819" d="M614 307h-102v-102h102v-205h-102v-102h-307v102h-103v102h205v-102h103v205h-205v102h-103v103h-102v204h102v103h103v102h-103v205h103v102h307v-102h102v-102h-204v102h-103v-205h205v-102h102v-103h103v-204h-103v-103zM410 410h102v204h-102v103h-103v-103h-102 v-204h102v-103h103v103z" />
<glyph unicode="&#xa8;" horiz-adv-x="819" d="M717 1229v-103h-307v103h307zM0 1126v103h307v-103h-307z" />
<glyph unicode="&#xa9;" horiz-adv-x="1331" d="M1024 205v-103h-205v-102h-409v102h-205v103h-103v205h-102v307h102v205h103v102h205v102h409v-102h205v-102h102v-205h103v-307h-103v-205h-102zM922 512v-102h-103v-103h-409v103h-103v307h103v102h409v-102h103v-103h-205v103h-205v-307h205v102h205zM205 717v-307 h102v-205h205v-103h205v103h205v205h102v307h-102v205h-205v102h-205v-102h-205v-205h-102z" />
<glyph unicode="&#xaa;" horiz-adv-x="819" d="M614 512v-102h-512v102h512zM717 614h-615v103h-102v102h102v103h308v102h-308v102h410v-102h102v-307h103v-103zM410 717v102h-205v-102h205z" />
<glyph unicode="&#xab;" d="M614 307h103v-102h102v-103h-205v103h-102v102h-102v103h-103v102h103v102h102v103h102v102h205v-102h-102v-103h-103v-102h-102v-102h102v-103zM307 512h-102v-102h102v-103h103v-102h102v-103h-205v103h-102v102h-103v103h-102v102h102v102h103v103h102v102h205v-102 h-102v-103h-103v-102z" />
<glyph unicode="&#xac;" d="M614 307v205h-614v102h819v-307h-205z" />
<glyph unicode="&#xad;" horiz-adv-x="819" d="M717 410h-717v102h717v-102z" />
<glyph unicode="&#xae;" horiz-adv-x="1331" d="M1024 205v-103h-205v-102h-409v102h-205v103h-103v205h-102v307h102v205h103v102h205v102h409v-102h205v-102h102v-205h103v-307h-103v-205h-102zM717 410h-103v102h-102v-205h-205v-102h205v-103h205v103h205v102h-205v103zM819 819v-102h103v-103h-103v-204h205v307 h-102v205h-205v102h-205v-102h-205v-103h512zM205 717v-307h102v307h-102zM512 614h205v103h-205v-103z" />
<glyph unicode="&#xaf;" horiz-adv-x="716" d="M0 1126v103h614v-103h-614z" />
<glyph unicode="&#xb0;" horiz-adv-x="716" d="M512 717v-103h-410v103h-102v307h102v102h410v-102h102v-307h-102zM205 1024v-307h205v307h-205z" />
<glyph unicode="&#xb1;" d="M0 0v102h819v-102h-819zM819 614v-102h-307v-307h-205v307h-307v102h307v308h205v-308h307z" />
<glyph unicode="&#xb2;" horiz-adv-x="716" d="M102 1229h410v-103h102v-102h-102v-102h-102v-103h-103v-102h307v-103h-614v103h102v102h103v103h102v102h103v102h-205v-102h-205v102h102v103z" />
<glyph unicode="&#xb3;" horiz-adv-x="716" d="M102 1229h410v-103h102v-102h-102v-102h102v-205h-102v-103h-410v103h-102v102h205v-102h205v205h-205v102h205v102h-205v-102h-205v102h102v103z" />
<glyph unicode="&#xb4;" horiz-adv-x="512" d="M205 922h-205v102h102v102h103v103h205v-103h-103v-102h-102v-102z" />
<glyph unicode="&#xb5;" horiz-adv-x="1024" d="M512 102v103h102v512h-102v102h307v-717h103v-102h-615v-410h-205v1127h-102v102h307v-614h103v-103h102z" />
<glyph unicode="&#xb6;" horiz-adv-x="1126" d="M205 1024v102h819v-102h-102v-1126h-410v512h-307v102h-103v102h-102v308h102v102h103z" />
<glyph unicode="&#xb7;" horiz-adv-x="307" d="M0 717h205v-205h-205v205z" />
<glyph unicode="&#xb8;" horiz-adv-x="716" d="M205 0h205v-102h102v-205h-102v-103h-205v103h-103v102h205v103h-102v102z" />
<glyph unicode="&#xb9;" horiz-adv-x="716" d="M512 717v-103h-410v103h103v307h-103v102h103v103h205v-512h102z" />
<glyph unicode="&#xba;" horiz-adv-x="716" d="M512 717v-103h-410v103h-102v307h102v102h410v-102h102v-307h-102zM205 1024v-307h205v307h-205zM102 410v102h410v-102h-410z" />
<glyph unicode="&#xbb;" d="M717 410v-103h-103v-102h-102v-103h-205v103h103v102h102v103h102v102h-102v102h-102v103h-103v102h205v-102h102v-103h103v-102h102v-102h-102zM307 512h-102v102h-103v103h-102v102h205v-102h102v-103h103v-102h102v-102h-102v-103h-103v-102h-102v-103h-205v103h102 v102h103v103h102v102z" />
<glyph unicode="&#xbc;" horiz-adv-x="1126" d="M512 102v103h-102v-205h-205v205h102v205h103v204h-410v103h102v205h-102v102h102v102h205v-409h205v205h102v204h205v-204h-102v-205h-103v-307h-102v-103h102v103h103v102h205v-307h102v-103h-102v-102h-205v102h-205z" />
<glyph unicode="&#xbd;" horiz-adv-x="1126" d="M922 512v-102h102v-103h-102v-102h-103v-103h205v-102h-512v102h102v103h103v102h102v103h-102v-103h-205v-102h-102v-205h-205v205h102v205h103v204h-410v103h102v205h-102v102h102v102h205v-409h205v205h102v204h205v-204h-102v-205h-103v-205h308z" />
<glyph unicode="&#xbe;" horiz-adv-x="1126" d="M922 512v-307h102v-103h-102v-102h-205v102h-205v103h-102v-205h-205v205h102v205h103v204h-308v103h-102v102h205v-102h102v102h-102v103h102v102h-102v-102h-205v102h102v102h308v-102h102v-102h-102v-103h102v103h102v204h205v-204h-102v-205h-103v-307h-102v-103h102 v103h103v102h205z" />
<glyph unicode="&#xbf;" d="M717 -205h-103v-102h-409v102h-103v103h-102v204h102v103h103v102h102v205h205v-205h-102v-102h-103v-103h-102v-204h102v-103h205v103h102v102h205v-102h-102v-103zM307 614v205h205v-205h-205z" />
<glyph unicode="&#xc0;" horiz-adv-x="1126" d="M0 0v102h102v205h103v307h102v308h103v102h-103v102h307v-204h103v-308h102v-307h103v-205h102v-102h-410v102h103v205h-103v103h-204v-103h-103v-205h103v-102h-410zM614 512v102h-204v-102h204zM410 1331h-103v103h205v-103h102v-102h-204v102z" />
<glyph unicode="&#xc1;" horiz-adv-x="1126" d="M0 0v102h102v205h103v307h102v308h103v102h-103v102h307v-204h103v-308h102v-307h103v-205h102v-102h-410v102h103v205h-103v103h-204v-103h-103v-205h103v-102h-410zM614 512v102h-204v-102h204zM410 1331h102v103h205v-103h-103v-102h-204v102z" />
<glyph unicode="&#xc2;" horiz-adv-x="1126" d="M0 0v102h102v205h103v307h102v308h103v102h-103v102h307v-204h103v-308h102v-307h103v-205h102v-102h-410v102h103v205h-103v103h-204v-103h-103v-205h103v-102h-410zM614 512v102h-204v-102h204zM410 1331v103h204v-103h103v-102h-410v102h103z" />
<glyph unicode="&#xc3;" horiz-adv-x="1126" d="M0 0v102h102v205h103v307h102v308h103v102h-103v102h307v-204h103v-308h102v-307h103v-205h102v-102h-410v102h103v205h-103v103h-204v-103h-103v-205h103v-102h-410zM614 512v102h-204v-102h204zM205 1331h102v103h512v-103h-102v-102h-512v102z" />
<glyph unicode="&#xc4;" horiz-adv-x="1126" d="M0 0v102h102v205h103v307h102v308h103v102h-103v102h307v-204h103v-308h102v-307h103v-205h102v-102h-410v102h103v205h-103v103h-204v-103h-103v-205h103v-102h-410zM614 512v102h-204v-102h204zM205 1331h614v-102h-614v102z" />
<glyph unicode="&#xc5;" horiz-adv-x="1126" d="M0 0v102h102v205h103v307h102v308h103v204h-103v103h-102v102h102v103h410v-103h102v-102h-102v-103h-103v-204h103v-308h102v-307h103v-205h102v-102h-410v102h103v205h-103v103h-204v-103h-103v-205h103v-102h-410zM614 614h-204v-102h204v102zM410 1331v-102h204v102 h-204z" />
<glyph unicode="&#xc6;" horiz-adv-x="1536" d="M0 0v102h102v205h103v205h102v205h103v205h102v102h-102v102h1024v-204h-205v102h-410v-410h205v103h205v-307h-205v102h-205v-410h410v103h205v-205h-922v102h102v410h-204v-205h-103v-205h103v-102h-410zM614 614v103h-102v-103h102z" />
<glyph unicode="&#xc7;" horiz-adv-x="1024" d="M717 205v102h205v-205h-205v-102h-103v-102h103v-205h-103v-103h-204v103h-103v102h205v103h-102v102h-103v102h-205v205h-102v512h102v205h205v102h615v-307h-205v103h-103v102h-204v-102h-103v-103h-102v-512h102v-102h103v-103h204v103h103z" />
<glyph unicode="&#xc8;" horiz-adv-x="1024" d="M0 0v102h102v922h-102v102h922v-204h-205v102h-410v-410h205v103h205v-307h-205v102h-205v-410h410v103h205v-205h-922zM410 1331h-103v103h205v-103h102v-102h-204v102z" />
<glyph unicode="&#xc9;" horiz-adv-x="1024" d="M0 0v102h102v922h-102v102h922v-204h-205v102h-410v-410h205v103h205v-307h-205v102h-205v-410h410v103h205v-205h-922zM410 1331v103h204v-103h-102v-102h-205v102h103z" />
<glyph unicode="&#xca;" horiz-adv-x="1024" d="M0 0v102h102v922h-102v102h922v-204h-205v102h-410v-410h205v103h205v-307h-205v102h-205v-410h410v103h205v-205h-922zM205 1331h102v103h307v-103h103v-102h-205v102h-102v-102h-205v102z" />
<glyph unicode="&#xcb;" horiz-adv-x="1024" d="M102 1229v102h308v-102h-308zM0 0v102h102v922h-102v102h922v-204h-205v102h-410v-410h205v103h205v-307h-205v102h-205v-410h410v103h205v-205h-922zM512 1229v102h307v-102h-307z" />
<glyph unicode="&#xcc;" horiz-adv-x="512" d="M102 1229v102h-102v103h205v-103h102v-102h-205zM0 0v102h102v922h-102v102h410v-102h-103v-922h103v-102h-410z" />
<glyph unicode="&#xcd;" horiz-adv-x="512" d="M102 1229v102h103v103h205v-103h-103v-102h-205zM0 0v102h102v922h-102v102h410v-102h-103v-922h103v-102h-410z" />
<glyph unicode="&#xce;" horiz-adv-x="512" d="M0 0v102h102v922h-102v102h410v-102h-103v-922h103v-102h-410zM102 1434h205v-103h103v-102h-410v102h102v103z" />
<glyph unicode="&#xcf;" horiz-adv-x="512" d="M0 0v102h102v922h-102v102h410v-102h-103v-922h103v-102h-410zM512 1229h-614v102h614v-102z" />
<glyph unicode="&#xd0;" horiz-adv-x="1024" d="M512 102v103h102v102h103v512h-103v103h-102v102h-205v-410h103v-102h-103v-410h205zM0 0v102h102v410h-102v102h102v410h-102v102h614v-102h205v-205h103v-512h-103v-205h-205v-102h-614z" />
<glyph unicode="&#xd1;" horiz-adv-x="1126" d="M102 1229v102h103v103h409v-103h103v103h205v-103h-103v-102h-409v102h-103v-102h-205zM0 0v102h102v922h-102v102h307v-102h103v-205h102v-205h102v-204h103v614h-103v102h410v-102h-102v-1024h-205v102h-103v103h-102v205h-102v204h-103v-512h103v-102h-410z" />
<glyph unicode="&#xd2;" horiz-adv-x="1126" d="M717 205v102h102v512h-102v103h-103v102h-204v-102h-103v-103h-102v-512h102v-102h103v-103h204v103h103zM922 307v-205h-205v-102h-410v102h-205v205h-102v512h102v205h205v102h410v-102h205v-205h102v-512h-102zM410 1331h-103v103h205v-103h102v-102h-204v102z" />
<glyph unicode="&#xd3;" horiz-adv-x="1126" d="M717 205v102h102v512h-102v103h-103v102h-204v-102h-103v-103h-102v-512h102v-102h103v-103h204v103h103zM922 307v-205h-205v-102h-410v102h-205v205h-102v512h102v205h205v102h410v-102h205v-205h102v-512h-102zM410 1331h102v103h205v-103h-103v-102h-204v102z" />
<glyph unicode="&#xd4;" horiz-adv-x="1126" d="M819 819h-102v103h-103v102h-204v-102h-103v-103h-102v-512h102v-102h103v-103h204v103h103v102h102v512zM922 307v-205h-205v-102h-410v102h-205v205h-102v512h102v205h205v102h410v-102h205v-205h102v-512h-102zM410 1331v103h204v-103h103v-102h-410v102h103z" />
<glyph unicode="&#xd5;" horiz-adv-x="1126" d="M819 819h-102v103h-103v102h-204v-102h-103v-103h-102v-512h102v-102h103v-103h204v103h103v102h102v512zM922 307v-205h-205v-102h-410v102h-205v205h-102v512h102v205h205v102h410v-102h205v-205h102v-512h-102zM205 1331h102v103h512v-103h-102v-102h-512v102z" />
<glyph unicode="&#xd6;" horiz-adv-x="1126" d="M819 819h-102v103h-103v102h-204v-102h-103v-103h-102v-512h102v-102h103v-103h204v103h103v102h102v512zM922 307v-205h-205v-102h-410v102h-205v205h-102v512h102v205h205v102h410v-102h205v-205h102v-512h-102zM205 1331h614v-102h-614v102z" />
<glyph unicode="&#xd7;" d="M614 307h103v-102h102v-103h-205v103h-102v102h-205v-102h-102v-103h-205v103h102v102h103v103h102v102h-102v102h-103v103h-102v102h205v-102h102v-103h205v103h102v102h205v-102h-102v-103h-103v-102h-102v-102h102v-103z" />
<glyph unicode="&#xd8;" horiz-adv-x="1126" d="M0 0v102h102v205h-102v512h102v205h205v102h410v-102h102v102h205v-102h-102v-205h102v-512h-102v-205h-205v-102h-410v102h-102v-102h-205zM717 819v103h-103v102h-204v-102h-103v-103h-102v-409h102v102h103v102h102v103h102v102h103zM614 614v-102h-102v-102h-102 v-103h-103v-102h103v-103h204v103h103v102h102v410h-102v-103h-103z" />
<glyph unicode="&#xd9;" horiz-adv-x="1228" d="M512 102h102v103h103v102h102v717h-102v102h409v-102h-102v-717h-102v-205h-205v-102h-307v102h-205v205h-103v717h-102v102h410v-102h-103v-717h103v-102h102v-103zM410 1331v103h204v-103h103v-102h-205v102h-102z" />
<glyph unicode="&#xda;" horiz-adv-x="1228" d="M512 102h102v103h103v102h102v717h-102v102h409v-102h-102v-717h-102v-205h-205v-102h-307v102h-205v205h-103v717h-102v102h410v-102h-103v-717h103v-102h102v-103zM410 1331h102v103h205v-103h-103v-102h-204v102z" />
<glyph unicode="&#xdb;" horiz-adv-x="1228" d="M512 102h102v103h103v102h102v717h-102v102h409v-102h-102v-717h-102v-205h-205v-102h-307v102h-205v205h-103v717h-102v102h410v-102h-103v-717h103v-102h102v-103zM410 1331v103h307v-103h102v-102h-205v102h-102v-102h-205v102h103z" />
<glyph unicode="&#xdc;" horiz-adv-x="1228" d="M512 102h102v103h103v102h102v717h-102v102h409v-102h-102v-717h-102v-205h-205v-102h-307v102h-205v205h-103v717h-102v102h410v-102h-103v-717h103v-102h102v-103zM205 1331h307v-102h-307v102zM922 1229h-308v102h308v-102z" />
<glyph unicode="&#xdd;" horiz-adv-x="1126" d="M0 1126h410v-102h-103v-102h103v-205h204v205h103v102h-103v102h410v-102h-102v-102h-103v-205h-102v-103h-103v-512h103v-102h-410v102h103v512h-103v103h-102v205h-103v102h-102v102zM410 1331h102v103h205v-103h-103v-102h-204v102z" />
<glyph unicode="&#xde;" horiz-adv-x="1024" d="M0 0v102h102v922h-102v102h410v-102h-103v-102h410v-103h102v-102h103v-307h-103v-103h-102v-102h-410v-103h103v-102h-410zM717 410v307h-103v102h-307v-512h307v103h103z" />
<glyph unicode="&#xdf;" horiz-adv-x="1024" d="M0 0v102h102v820h103v102h102v102h410v-102h102v-102h103v-205h-103v-103h-102v-102h102v-102h103v-205h-103v-103h-102v-102h-307v102h204v103h103v205h-103v102h-204v102h204v103h103v205h-103v102h-204v-102h-103v-922h-307z" />
<glyph unicode="&#xe0;" d="M205 1024v102h205v-102h102v-102h-205v102h-102zM307 307h-102v-205h205v103h102v205h-205v-103zM102 102h-102v205h102v103h103v102h307v205h-205v-103h-205v103h103v102h409v-102h103v-615h102v-102h-717v102z" />
<glyph unicode="&#xe1;" d="M307 307h-102v-205h205v103h102v205h-205v-103zM102 102h-102v205h102v103h103v102h307v205h-205v-103h-205v103h103v102h409v-102h103v-615h102v-102h-717v102zM410 1126h204v-102h-102v-102h-205v102h103v102z" />
<glyph unicode="&#xe2;" d="M205 1024h102v102h205v-102h102v-102h-409v102zM307 307h-102v-205h205v103h102v205h-205v-103zM102 102h-102v205h102v103h103v102h307v205h-205v-103h-205v103h103v102h409v-102h103v-615h102v-102h-717v102z" />
<glyph unicode="&#xe3;" d="M205 1024v102h512v-102h-103v-102h-512v102h103zM307 307h-102v-205h205v103h102v205h-205v-103zM102 102h-102v205h102v103h103v102h307v205h-205v-103h-205v103h103v102h409v-102h103v-615h102v-102h-717v102z" />
<glyph unicode="&#xe4;" d="M307 307h-102v-205h205v103h102v205h-205v-103zM102 922v102h615v-102h-615zM102 102h-102v205h102v103h103v102h307v205h-205v-103h-205v103h103v102h409v-102h103v-615h102v-102h-717v102z" />
<glyph unicode="&#xe5;" d="M205 1024h-103v102h103v103h409v-103h103v-102h-103v-102h-409v102zM307 307h-102v-205h205v103h102v205h-205v-103zM102 102h-102v205h102v103h103v102h307v205h-205v-103h-205v103h103v102h409v-102h103v-615h102v-102h-717v102zM512 1126h-205v-102h205v102z" />
<glyph unicode="&#xe6;" horiz-adv-x="1433" d="M1126 0h-409v102h-205v-102h-410v102h-102v205h102v103h103v102h307v205h-205v-103h-205v103h103v102h409v-102h103v102h409v-102h103v-103h102v-204h-614v-205h102v-103h205v103h205v-103h-103v-102zM1024 717h-205v-103h-102v-102h409v102h-102v103zM410 102v103h102 v205h-205v-103h-102v-205h205z" />
<glyph unicode="&#xe7;" d="M512 102v103h102v102h205v-102h-102v-103h-103v-102h-102v-102h102v-205h-102v-103h-205v103h-102v102h205v103h-103v102h-102v102h-103v103h-102v409h102v103h103v102h614v-307h-205v102h-102v103h-205v-103h-102v-409h102v-103h205z" />
<glyph unicode="&#xe8;" d="M512 102v103h205v-103h-103v-102h-409v102h-103v103h-102v409h102v103h103v102h409v-102h103v-103h102v-204h-614v-205h102v-103h205zM614 512v102h-102v103h-205v-103h-102v-102h409zM205 1024v102h205v-102h102v-102h-205v102h-102z" />
<glyph unicode="&#xe9;" d="M512 102v103h205v-103h-103v-102h-409v102h-103v103h-102v409h102v103h103v102h409v-102h103v-103h102v-204h-614v-205h102v-103h205zM614 512v102h-102v103h-205v-103h-102v-102h409zM410 1126h204v-102h-102v-102h-205v102h103v102z" />
<glyph unicode="&#xea;" d="M512 102v103h205v-103h-103v-102h-409v102h-103v103h-102v409h102v103h103v102h409v-102h103v-103h102v-204h-614v-205h102v-103h205zM614 512v102h-102v103h-205v-103h-102v-102h409zM205 1024h102v102h205v-102h102v-102h-409v102z" />
<glyph unicode="&#xeb;" d="M512 102v103h205v-103h-103v-102h-409v102h-103v103h-102v409h102v103h103v102h409v-102h103v-103h102v-204h-614v-205h102v-103h205zM614 512v102h-102v103h-205v-103h-102v-102h409zM102 922v102h615v-102h-615z" />
<glyph unicode="&#xec;" horiz-adv-x="512" d="M0 0v102h102v615h-102v102h307v-717h103v-102h-410zM0 1126v103h205v-103h102v-102h-205v102h-102z" />
<glyph unicode="&#xed;" horiz-adv-x="512" d="M0 0v102h102v615h-102v102h307v-717h103v-102h-410zM102 1126h103v103h205v-103h-103v-102h-205v102z" />
<glyph unicode="&#xee;" horiz-adv-x="512" d="M102 1229h205v-103h103v-102h-410v102h102v103zM0 0v102h102v615h-102v102h307v-717h103v-102h-410z" />
<glyph unicode="&#xef;" horiz-adv-x="512" d="M0 0v102h102v615h-102v102h307v-717h103v-102h-410zM512 1126v-102h-614v102h614z" />
<glyph unicode="&#xf0;" d="M512 102v103h102v409h-102v103h-205v-103h-102v-409h102v-103h205zM102 1229h410v-103h102v103h205v-103h-102v-204h102v-717h-102v-103h-103v-102h-409v102h-103v103h-102v409h102v103h103v102h409v103h-307v102h103v102h-308v103z" />
<glyph unicode="&#xf1;" horiz-adv-x="1024" d="M512 102h102v512h-102v103h-102v-103h-103v-512h103v-102h-410v102h102v615h-102v102h614v-102h103v-103h102v-512h103v-102h-410v102zM205 1024v102h307v-102h102v102h205v-102h-102v-102h-307v102h-103v-102h-205v102h103z" />
<glyph unicode="&#xf2;" d="M512 102v103h102v409h-102v103h-205v-103h-102v-409h102v-103h205zM717 205v-103h-103v-102h-409v102h-103v103h-102v409h102v103h103v102h409v-102h103v-103h102v-409h-102zM205 1024v102h205v-102h102v-102h-205v102h-102z" />
<glyph unicode="&#xf3;" d="M512 102v103h102v409h-102v103h-205v-103h-102v-409h102v-103h205zM717 205v-103h-103v-102h-409v102h-103v103h-102v409h102v103h103v102h409v-102h103v-103h102v-409h-102zM410 1126h204v-102h-102v-102h-205v102h103v102z" />
<glyph unicode="&#xf4;" d="M512 102v103h102v409h-102v103h-205v-103h-102v-409h102v-103h205zM717 205v-103h-103v-102h-409v102h-103v103h-102v409h102v103h103v102h409v-102h103v-103h102v-409h-102zM205 1024h102v102h205v-102h102v-102h-409v102z" />
<glyph unicode="&#xf5;" d="M512 102v103h102v409h-102v103h-205v-103h-102v-409h102v-103h205zM717 205v-103h-103v-102h-409v102h-103v103h-102v409h102v103h103v102h409v-102h103v-103h102v-409h-102zM205 1024v102h512v-102h-103v-102h-512v102h103z" />
<glyph unicode="&#xf6;" d="M512 102v103h102v409h-102v103h-205v-103h-102v-409h102v-103h205zM717 205v-103h-103v-102h-409v102h-103v103h-102v409h102v103h103v102h409v-102h103v-103h102v-409h-102zM102 922v102h615v-102h-615z" />
<glyph unicode="&#xf7;" d="M512 102h-205v205h205v-205zM0 410v102h819v-102h-819zM512 614h-205v205h205v-205z" />
<glyph unicode="&#xf8;" d="M512 102v103h102v307h-102v-205h-102v-102h-103v-103h205zM0 0v102h102v103h-102v409h102v103h103v102h614v-102h-102v-103h102v-409h-102v-103h-103v-102h-614zM307 307v205h103v102h102v103h-205v-103h-102v-307h102z" />
<glyph unicode="&#xf9;" horiz-adv-x="1024" d="M512 102v103h102v512h-102v102h307v-717h103v-102h-615v102h-102v103h-103v512h-102v102h307v-614h103v-103h102zM205 1024v102h205v-102h102v-102h-205v102h-102z" />
<glyph unicode="&#xfa;" horiz-adv-x="1024" d="M512 102v103h102v512h-102v102h307v-717h103v-102h-615v102h-102v103h-103v512h-102v102h307v-614h103v-103h102zM410 1126h204v-102h-102v-102h-205v102h103v102z" />
<glyph unicode="&#xfb;" horiz-adv-x="1024" d="M512 102v103h102v512h-102v102h307v-717h103v-102h-615v102h-102v103h-103v512h-102v102h307v-614h103v-103h102zM205 1024h102v102h205v-102h102v-102h-409v102z" />
<glyph unicode="&#xfc;" horiz-adv-x="1024" d="M512 102v103h102v512h-102v102h307v-717h103v-102h-615v102h-102v103h-103v512h-102v102h307v-614h103v-103h102zM102 922v102h615v-102h-615z" />
<glyph unicode="&#xfd;" d="M0 -410v103h102v102h103v205h102v205h-102v307h-103v205h-102v102h819v-102h-102v-205h-103v-307h-102v-205h-102v-205h-103v-102h-102v-103h-205zM307 512h205v205h-205v-205zM410 1126h204v-102h-102v-102h-205v102h103v102z" />
<glyph unicode="&#xfe;" horiz-adv-x="1024" d="M0 -410v103h102v1433h-102v103h307v-410h410v-102h102v-103h103v-409h-103v-103h-102v-102h-410v-307h103v-103h-410zM410 717v-103h-103v-409h103v-103h204v103h103v409h-103v103h-204z" />
<glyph unicode="&#xff;" d="M0 -410v103h102v102h103v205h102v205h-102v307h-103v205h-102v102h819v-102h-102v-205h-103v-307h-102v-205h-102v-205h-103v-102h-102v-103h-205zM102 922v102h615v-102h-615zM307 512h205v205h-205v-205z" />
<glyph unicode="&#x152;" horiz-adv-x="1433" d="M512 102v922h-102v-102h-103v-103h-102v-512h102v-102h103v-103h102zM922 512h-205v-410h409v103h205v-205h-1024v102h-205v205h-102v512h102v205h205v102h1024v-204h-205v102h-409v-410h205v103h204v-307h-204v102z" />
<glyph unicode="&#x153;" horiz-adv-x="1536" d="M819 819h410v-102h102v-103h103v-204h-615v-205h103v-103h204v103h205v-103h-102v-102h-410v102h-205v-102h-409v102h-103v103h-102v409h102v103h103v102h409v-102h205v102zM1229 614h-103v103h-204v-103h-103v-102h410v102zM614 614h-102v103h-205v-103h-102v-409h102 v-103h205v103h102v409z" />
<glyph unicode="&#x178;" horiz-adv-x="1126" d="M0 1126h410v-102h-103v-102h103v-205h204v205h103v102h-103v102h410v-102h-102v-102h-103v-205h-102v-103h-103v-512h103v-102h-410v102h103v512h-103v103h-102v205h-103v102h-102v102zM205 1331h614v-102h-614v102z" />
<glyph unicode="&#x2c6;" horiz-adv-x="716" d="M205 922h-205v102h102v102h103v103h205v-103h102v-102h102v-102h-204v102h-205v-102z" />
<glyph unicode="&#x2dc;" horiz-adv-x="819" d="M102 1229h308v-103h102v103h205v-103h-103v-102h-307v102h-102v-102h-205v102h102v103z" />
<glyph unicode="&#x2000;" horiz-adv-x="717" />
<glyph unicode="&#x2001;" horiz-adv-x="1434" />
<glyph unicode="&#x2002;" horiz-adv-x="717" />
<glyph unicode="&#x2003;" horiz-adv-x="1434" />
<glyph unicode="&#x2004;" horiz-adv-x="478" />
<glyph unicode="&#x2005;" horiz-adv-x="358" />
<glyph unicode="&#x2006;" horiz-adv-x="239" />
<glyph unicode="&#x2007;" horiz-adv-x="239" />
<glyph unicode="&#x2008;" horiz-adv-x="179" />
<glyph unicode="&#x2009;" horiz-adv-x="286" />
<glyph unicode="&#x200a;" horiz-adv-x="79" />
<glyph unicode="&#x2010;" horiz-adv-x="819" d="M717 410h-717v102h717v-102z" />
<glyph unicode="&#x2011;" horiz-adv-x="819" d="M717 410h-717v102h717v-102z" />
<glyph unicode="&#x2012;" horiz-adv-x="819" d="M717 410h-717v102h717v-102z" />
<glyph unicode="&#x2013;" d="M0 410v102h819v-102h-819z" />
<glyph unicode="&#x2014;" horiz-adv-x="1433" d="M0 410v102h1331v-102h-1331z" />
<glyph unicode="&#x2018;" horiz-adv-x="409" d="M102 1229h205v-103h-102v-102h102v-205h-307v307h102v103z" />
<glyph unicode="&#x2019;" horiz-adv-x="409" d="M0 1229h307v-307h-102v-103h-205v103h102v102h-102v205z" />
<glyph unicode="&#x201a;" horiz-adv-x="409" d="M0 0v205h307v-307h-102v-103h-205v103h102v102h-102z" />
<glyph unicode="&#x201c;" horiz-adv-x="716" d="M102 1229h205v-103h-102v-102h102v102h103v103h204v-103h-102v-102h102v-205h-614v307h102v103z" />
<glyph unicode="&#x201d;" horiz-adv-x="716" d="M0 1229h614v-307h-102v-103h-205v103h103v102h-103v-102h-102v-103h-205v103h102v102h-102v205z" />
<glyph unicode="&#x201e;" horiz-adv-x="716" d="M0 0v205h614v-307h-102v-103h-205v103h103v102h-103v-102h-102v-103h-205v103h102v102h-102z" />
<glyph unicode="&#x2022;" horiz-adv-x="716" d="M512 307h-410v103h-102v307h102v102h410v-102h102v-307h-102v-103z" />
<glyph unicode="&#x2026;" horiz-adv-x="1126" d="M717 0v205h205v-205h-205zM102 0v205h205v-205h-205zM614 205v-205h-204v205h204z" />
<glyph unicode="&#x202f;" horiz-adv-x="286" />
<glyph unicode="&#x2039;" horiz-adv-x="614" d="M512 102h-205v103h-102v102h-103v103h-102v102h102v102h103v103h102v102h205v-102h-102v-103h-103v-102h-102v-102h102v-103h103v-102h102v-103z" />
<glyph unicode="&#x203a;" horiz-adv-x="614" d="M307 307v-102h-102v-103h-205v103h102v102h103v103h102v102h-102v102h-103v103h-102v102h205v-102h102v-103h103v-102h102v-102h-102v-103h-103z" />
<glyph unicode="&#x205f;" horiz-adv-x="358" />
<glyph unicode="&#x20ac;" horiz-adv-x="1228" d="M614 614h-204v-102h204v-102h-204v-103h102v-102h102v-103h205v103h103v102h204v-205h-204v-102h-410v102h-205v205h-102v103h-205v102h205v102h-205v103h205v102h102v205h205v102h614v-307h-204v103h-103v102h-205v-102h-102v-103h-102v-102h204v-103z" />
<glyph unicode="&#x2122;" horiz-adv-x="1126" d="M0 1126v103h614v-103h205v103h205v-410h-205v103h-205v-103h-204v307h-103v-307h-205v307h-102z" />
<glyph unicode="&#x25fc;" horiz-adv-x="819" d="M0 819h819v-819h-819v819z" />
<glyph unicode="&#xfb01;" d="M512 102v615h-205v-615h205zM0 0v102h102v615h-102v102h102v205h103v102h102v103h307v-103h-204v-102h-103v-205h410v-717h102v-102h-819z" />
<glyph unicode="&#xfb02;" d="M512 102v1024h-102v-102h-103v-205h103v-102h-103v-615h205zM0 0v102h102v615h-102v102h102v205h103v102h102v103h410v-1127h102v-102h-819z" />
<glyph unicode="&#xfb03;" horiz-adv-x="1331" d="M0 0v102h102v615h-102v102h102v205h103v102h102v103h307v-103h-204v-102h-103v-205h205v205h102v102h103v103h307v-103h-205v-102h-102v-205h409v-717h103v-102h-1229zM512 102v615h-205v-615h205zM922 102v615h-205v-615h205z" />
<glyph unicode="&#xfb04;" horiz-adv-x="1331" d="M0 0v102h102v615h-102v102h102v205h103v102h102v103h307v-103h-204v-102h-103v-205h205v205h102v102h103v103h409v-1127h103v-102h-1229zM512 102v615h-205v-615h205zM819 819v-102h-102v-615h205v1024h-103v-102h-102v-205h102z" />
</font>
</defs>
</svg>
